<svg width="177" height="16" viewBox="0 0 177 16" fill="none" xmlns="http://www.w3.org/2000/svg">
<path d="M2.66683 13.3337C2.30016 13.3337 1.98638 13.2032 1.7255 12.9423C1.46461 12.6814 1.33394 12.3674 1.3335 12.0003V4.00033C1.3335 3.63366 1.46416 3.31988 1.7255 3.05899C1.98683 2.7981 2.30061 2.66744 2.66683 2.66699H13.3335C13.7002 2.66699 14.0142 2.79766 14.2755 3.05899C14.5368 3.32033 14.6673 3.6341 14.6668 4.00033V12.0003C14.6668 12.367 14.5364 12.681 14.2755 12.9423C14.0146 13.2037 13.7006 13.3341 13.3335 13.3337H2.66683ZM8.00016 8.66699L13.3335 5.33366V4.00033L8.00016 7.33366L2.66683 4.00033V5.33366L8.00016 8.66699Z" fill="black"/>
<path d="M25.14 11.5V4.5H25.88V11.5H25.14ZM30.6876 6.2C31.1142 6.2 31.4876 6.28333 31.8076 6.45C32.1342 6.61 32.3876 6.85667 32.5676 7.19C32.7542 7.52333 32.8476 7.94333 32.8476 8.45V11.5H32.1376V8.52C32.1376 7.96667 31.9976 7.55 31.7176 7.27C31.4442 6.98333 31.0576 6.84 30.5576 6.84C30.1842 6.84 29.8576 6.91667 29.5776 7.07C29.3042 7.21667 29.0909 7.43333 28.9376 7.72C28.7909 8 28.7176 8.34 28.7176 8.74V11.5H28.0076V6.25H28.6876V7.69L28.5776 7.42C28.7442 7.04 29.0109 6.74333 29.3776 6.53C29.7442 6.31 30.1809 6.2 30.6876 6.2ZM34.8854 11.5V5.59C34.8854 5.12333 35.0221 4.74667 35.2954 4.46C35.5687 4.17333 35.9621 4.03 36.4754 4.03C36.6754 4.03 36.8687 4.05667 37.0554 4.11C37.2421 4.16333 37.3987 4.24667 37.5254 4.36L37.2854 4.89C37.1854 4.80333 37.0687 4.74 36.9354 4.7C36.8021 4.65333 36.6587 4.63 36.5054 4.63C36.2054 4.63 35.9754 4.71333 35.8154 4.88C35.6554 5.04667 35.5754 5.29333 35.5754 5.62V6.42L35.5954 6.75V11.5H34.8854ZM33.9454 6.84V6.25H37.1954V6.84H33.9454ZM40.2062 11.55C39.6995 11.55 39.2428 11.4367 38.8362 11.21C38.4362 10.9767 38.1195 10.66 37.8862 10.26C37.6528 9.85333 37.5362 9.39 37.5362 8.87C37.5362 8.34333 37.6528 7.88 37.8862 7.48C38.1195 7.08 38.4362 6.76667 38.8362 6.54C39.2362 6.31333 39.6928 6.2 40.2062 6.2C40.7262 6.2 41.1862 6.31333 41.5862 6.54C41.9928 6.76667 42.3095 7.08 42.5362 7.48C42.7695 7.88 42.8862 8.34333 42.8862 8.87C42.8862 9.39 42.7695 9.85333 42.5362 10.26C42.3095 10.66 41.9928 10.9767 41.5862 11.21C41.1795 11.4367 40.7195 11.55 40.2062 11.55ZM40.2062 10.92C40.5862 10.92 40.9228 10.8367 41.2162 10.67C41.5095 10.4967 41.7395 10.2567 41.9062 9.95C42.0795 9.63667 42.1662 9.27667 42.1662 8.87C42.1662 8.45667 42.0795 8.09667 41.9062 7.79C41.7395 7.48333 41.5095 7.24667 41.2162 7.08C40.9228 6.90667 40.5895 6.82 40.2162 6.82C39.8428 6.82 39.5095 6.90667 39.2162 7.08C38.9228 7.24667 38.6895 7.48333 38.5162 7.79C38.3428 8.09667 38.2562 8.45667 38.2562 8.87C38.2562 9.27667 38.3428 9.63667 38.5162 9.95C38.6895 10.2567 38.9228 10.4967 39.2162 10.67C39.5095 10.8367 39.8395 10.92 40.2062 10.92ZM48.4957 13.5C47.809 13.5 47.1824 13.3867 46.6157 13.16C46.049 12.94 45.559 12.6267 45.1457 12.22C44.739 11.82 44.4224 11.3433 44.1957 10.79C43.9757 10.23 43.8657 9.62 43.8657 8.96C43.8657 8.29333 43.9757 7.68667 44.1957 7.14C44.4224 6.58667 44.7424 6.11 45.1557 5.71C45.5757 5.30333 46.0724 4.99 46.6457 4.77C47.219 4.55 47.849 4.44 48.5357 4.44C49.2157 4.44 49.8357 4.54667 50.3957 4.76C50.9624 4.97333 51.4524 5.27667 51.8657 5.67C52.279 6.05667 52.5957 6.52 52.8157 7.06C53.0424 7.6 53.1557 8.19667 53.1557 8.85C53.1557 9.41 53.089 9.89333 52.9557 10.3C52.829 10.7 52.6424 11.01 52.3957 11.23C52.149 11.4433 51.8524 11.55 51.5057 11.55C51.1657 11.55 50.8924 11.4467 50.6857 11.24C50.479 11.0333 50.3757 10.7433 50.3757 10.37V9.58L50.4557 8.94L50.3557 7.94V6.43H51.0057V10.22C51.0057 10.5 51.0657 10.6967 51.1857 10.81C51.3057 10.9233 51.4524 10.98 51.6257 10.98C51.8324 10.98 52.0124 10.8967 52.1657 10.73C52.319 10.5633 52.4357 10.3233 52.5157 10.01C52.6024 9.69 52.6457 9.30667 52.6457 8.86C52.6457 8.27333 52.5457 7.74 52.3457 7.26C52.1457 6.78 51.8624 6.36667 51.4957 6.02C51.129 5.67333 50.6957 5.41 50.1957 5.23C49.6957 5.04333 49.1424 4.95 48.5357 4.95C47.929 4.95 47.3724 5.04667 46.8657 5.24C46.359 5.43333 45.9224 5.71 45.5557 6.07C45.1957 6.42333 44.9157 6.84667 44.7157 7.34C44.5157 7.82667 44.4157 8.36667 44.4157 8.96C44.4157 9.55333 44.5124 10.0967 44.7057 10.59C44.9057 11.0833 45.1857 11.5067 45.5457 11.86C45.9057 12.22 46.3357 12.4967 46.8357 12.69C47.3357 12.89 47.889 12.99 48.4957 12.99C48.7957 12.99 49.1157 12.9533 49.4557 12.88C49.8024 12.8067 50.1224 12.6967 50.4157 12.55L50.5857 13.04C50.2857 13.1933 49.9457 13.3067 49.5657 13.38C49.1857 13.46 48.829 13.5 48.4957 13.5ZM48.3757 11.55C47.9024 11.55 47.479 11.44 47.1057 11.22C46.7324 10.9933 46.4357 10.6867 46.2157 10.3C46.0024 9.90667 45.8957 9.46 45.8957 8.96C45.8957 8.46 46.0024 8.01667 46.2157 7.63C46.4357 7.24333 46.7324 6.94 47.1057 6.72C47.479 6.5 47.9024 6.39 48.3757 6.39C48.8357 6.39 49.2424 6.49333 49.5957 6.7C49.9557 6.90667 50.2357 7.20333 50.4357 7.59C50.6424 7.97 50.7457 8.42667 50.7457 8.96C50.7457 9.49333 50.6424 9.95333 50.4357 10.34C50.2357 10.7267 49.959 11.0267 49.6057 11.24C49.2524 11.4467 48.8424 11.55 48.3757 11.55ZM48.4657 10.97C48.8257 10.97 49.149 10.8867 49.4357 10.72C49.729 10.5533 49.9557 10.32 50.1157 10.02C50.2824 9.71333 50.3657 9.36 50.3657 8.96C50.3657 8.55333 50.2824 8.20333 50.1157 7.91C49.9557 7.61 49.729 7.38 49.4357 7.22C49.149 7.05333 48.8257 6.97 48.4657 6.97C48.0924 6.97 47.7624 7.05333 47.4757 7.22C47.189 7.38 46.9624 7.61 46.7957 7.91C46.6357 8.21 46.5557 8.56 46.5557 8.96C46.5557 9.36 46.6357 9.71 46.7957 10.01C46.9624 10.31 47.189 10.5467 47.4757 10.72C47.7624 10.8867 48.0924 10.97 48.4657 10.97ZM56.3766 11.55C55.8832 11.55 55.5032 11.4167 55.2366 11.15C54.9699 10.8833 54.8366 10.5067 54.8366 10.02V5.09H55.5466V9.98C55.5466 10.2867 55.6232 10.5233 55.7766 10.69C55.9366 10.8567 56.1632 10.94 56.4566 10.94C56.7699 10.94 57.0299 10.85 57.2366 10.67L57.4866 11.18C57.3466 11.3067 57.1766 11.4 56.9766 11.46C56.7832 11.52 56.5832 11.55 56.3766 11.55ZM53.8966 6.84V6.25H57.1466V6.84H53.8966ZM60.8235 11.55C60.2768 11.55 59.7968 11.4367 59.3835 11.21C58.9702 10.9767 58.6468 10.66 58.4135 10.26C58.1802 9.85333 58.0635 9.39 58.0635 8.87C58.0635 8.35 58.1735 7.89 58.3935 7.49C58.6202 7.09 58.9268 6.77667 59.3135 6.55C59.7068 6.31667 60.1468 6.2 60.6335 6.2C61.1268 6.2 61.5635 6.31333 61.9435 6.54C62.3302 6.76 62.6335 7.07333 62.8535 7.48C63.0735 7.88 63.1835 8.34333 63.1835 8.87C63.1835 8.90333 63.1802 8.94 63.1735 8.98C63.1735 9.01333 63.1735 9.05 63.1735 9.09H58.6035V8.56H62.7935L62.5135 8.77C62.5135 8.39 62.4302 8.05333 62.2635 7.76C62.1035 7.46 61.8835 7.22667 61.6035 7.06C61.3235 6.89333 61.0002 6.81 60.6335 6.81C60.2735 6.81 59.9502 6.89333 59.6635 7.06C59.3768 7.22667 59.1535 7.46 58.9935 7.76C58.8335 8.06 58.7535 8.40333 58.7535 8.79V8.9C58.7535 9.3 58.8402 9.65333 59.0135 9.96C59.1935 10.26 59.4402 10.4967 59.7535 10.67C60.0735 10.8367 60.4368 10.92 60.8435 10.92C61.1635 10.92 61.4602 10.8633 61.7335 10.75C62.0135 10.6367 62.2535 10.4633 62.4535 10.23L62.8535 10.69C62.6202 10.97 62.3268 11.1833 61.9735 11.33C61.6268 11.4767 61.2435 11.55 60.8235 11.55ZM64.6287 11.5V6.25H65.3087V7.68L65.2387 7.43C65.3853 7.03 65.632 6.72667 65.9787 6.52C66.3253 6.30667 66.7553 6.2 67.2687 6.2V6.89C67.242 6.89 67.2153 6.89 67.1887 6.89C67.162 6.88333 67.1353 6.88 67.1087 6.88C66.5553 6.88 66.122 7.05 65.8087 7.39C65.4953 7.72333 65.3387 8.2 65.3387 8.82V11.5H64.6287ZM68.5642 11.5V6.25H69.2442V7.68L69.1742 7.43C69.3209 7.03 69.5676 6.72667 69.9142 6.52C70.2609 6.30667 70.6909 6.2 71.2042 6.2V6.89C71.1776 6.89 71.1509 6.89 71.1242 6.89C71.0976 6.88333 71.0709 6.88 71.0442 6.88C70.4909 6.88 70.0576 7.05 69.7442 7.39C69.4309 7.72333 69.2742 8.2 69.2742 8.82V11.5H68.5642ZM75.3991 11.5V10.34L75.3691 10.15V8.21C75.3691 7.76333 75.2425 7.42 74.9891 7.18C74.7425 6.94 74.3725 6.82 73.8791 6.82C73.5391 6.82 73.2158 6.87667 72.9091 6.99C72.6025 7.10333 72.3425 7.25333 72.1291 7.44L71.8091 6.91C72.0758 6.68333 72.3958 6.51 72.7691 6.39C73.1425 6.26333 73.5358 6.2 73.9491 6.2C74.6291 6.2 75.1525 6.37 75.5191 6.71C75.8925 7.04333 76.0791 7.55333 76.0791 8.24V11.5H75.3991ZM73.5891 11.55C73.1958 11.55 72.8525 11.4867 72.5591 11.36C72.2725 11.2267 72.0525 11.0467 71.8991 10.82C71.7458 10.5867 71.6691 10.32 71.6691 10.02C71.6691 9.74667 71.7325 9.5 71.8591 9.28C71.9925 9.05333 72.2058 8.87333 72.4991 8.74C72.7991 8.6 73.1991 8.53 73.6991 8.53H75.5091V9.06H73.7191C73.2125 9.06 72.8591 9.15 72.6591 9.33C72.4658 9.51 72.3691 9.73333 72.3691 10C72.3691 10.3 72.4858 10.54 72.7191 10.72C72.9525 10.9 73.2791 10.99 73.6991 10.99C74.0991 10.99 74.4425 10.9 74.7291 10.72C75.0225 10.5333 75.2358 10.2667 75.3691 9.92L75.5291 10.41C75.3958 10.7567 75.1625 11.0333 74.8291 11.24C74.5025 11.4467 74.0891 11.55 73.5891 11.55ZM79.6676 11.55C79.1742 11.55 78.7942 11.4167 78.5276 11.15C78.2609 10.8833 78.1276 10.5067 78.1276 10.02V5.09H78.8376V9.98C78.8376 10.2867 78.9142 10.5233 79.0676 10.69C79.2276 10.8567 79.4542 10.94 79.7476 10.94C80.0609 10.94 80.3209 10.85 80.5276 10.67L80.7776 11.18C80.6376 11.3067 80.4676 11.4 80.2676 11.46C80.0742 11.52 79.8742 11.55 79.6676 11.55ZM77.1876 6.84V6.25H80.4376V6.84H77.1876ZM84.1145 11.55C83.5679 11.55 83.0879 11.4367 82.6745 11.21C82.2612 10.9767 81.9379 10.66 81.7045 10.26C81.4712 9.85333 81.3545 9.39 81.3545 8.87C81.3545 8.35 81.4645 7.89 81.6845 7.49C81.9112 7.09 82.2179 6.77667 82.6045 6.55C82.9979 6.31667 83.4379 6.2 83.9245 6.2C84.4179 6.2 84.8545 6.31333 85.2345 6.54C85.6212 6.76 85.9245 7.07333 86.1445 7.48C86.3645 7.88 86.4745 8.34333 86.4745 8.87C86.4745 8.90333 86.4712 8.94 86.4645 8.98C86.4645 9.01333 86.4645 9.05 86.4645 9.09H81.8945V8.56H86.0845L85.8045 8.77C85.8045 8.39 85.7212 8.05333 85.5545 7.76C85.3945 7.46 85.1745 7.22667 84.8945 7.06C84.6145 6.89333 84.2912 6.81 83.9245 6.81C83.5645 6.81 83.2412 6.89333 82.9545 7.06C82.6679 7.22667 82.4445 7.46 82.2845 7.76C82.1245 8.06 82.0445 8.40333 82.0445 8.79V8.9C82.0445 9.3 82.1312 9.65333 82.3045 9.96C82.4845 10.26 82.7312 10.4967 83.0445 10.67C83.3645 10.8367 83.7279 10.92 84.1345 10.92C84.4545 10.92 84.7512 10.8633 85.0245 10.75C85.3045 10.6367 85.5445 10.4633 85.7445 10.23L86.1445 10.69C85.9112 10.97 85.6179 11.1833 85.2645 11.33C84.9179 11.4767 84.5345 11.55 84.1145 11.55ZM90.0997 11.55C89.5797 11.55 89.113 11.4367 88.6997 11.21C88.293 10.9767 87.973 10.66 87.7397 10.26C87.5064 9.85333 87.3897 9.39 87.3897 8.87C87.3897 8.34333 87.5064 7.88 87.7397 7.48C87.973 7.08 88.293 6.76667 88.6997 6.54C89.113 6.31333 89.5797 6.2 90.0997 6.2C90.5464 6.2 90.9497 6.28667 91.3097 6.46C91.6697 6.63333 91.953 6.89333 92.1597 7.24L91.6297 7.6C91.4497 7.33333 91.2264 7.13667 90.9597 7.01C90.693 6.88333 90.403 6.82 90.0897 6.82C89.7164 6.82 89.3797 6.90667 89.0797 7.08C88.7797 7.24667 88.543 7.48333 88.3697 7.79C88.1964 8.09667 88.1097 8.45667 88.1097 8.87C88.1097 9.28333 88.1964 9.64333 88.3697 9.95C88.543 10.2567 88.7797 10.4967 89.0797 10.67C89.3797 10.8367 89.7164 10.92 90.0897 10.92C90.403 10.92 90.693 10.8567 90.9597 10.73C91.2264 10.6033 91.4497 10.41 91.6297 10.15L92.1597 10.51C91.953 10.85 91.6697 11.11 91.3097 11.29C90.9497 11.4633 90.5464 11.55 90.0997 11.55ZM96.1563 6.2C96.583 6.2 96.9563 6.28333 97.2763 6.45C97.603 6.61 97.8563 6.85667 98.0363 7.19C98.223 7.52333 98.3163 7.94333 98.3163 8.45V11.5H97.6063V8.52C97.6063 7.96667 97.4663 7.55 97.1863 7.27C96.913 6.98333 96.5263 6.84 96.0263 6.84C95.653 6.84 95.3263 6.91667 95.0463 7.07C94.773 7.21667 94.5597 7.43333 94.4063 7.72C94.2597 8 94.1863 8.34 94.1863 8.74V11.5H93.4763V4.08H94.1863V7.69L94.0463 7.42C94.213 7.04 94.4797 6.74333 94.8463 6.53C95.213 6.31 95.6497 6.2 96.1563 6.2ZM102.944 11.55C102.491 11.55 102.081 11.4467 101.714 11.24C101.347 11.0267 101.054 10.7233 100.834 10.33C100.621 9.93 100.514 9.44333 100.514 8.87C100.514 8.29667 100.621 7.81333 100.834 7.42C101.047 7.02 101.337 6.71667 101.704 6.51C102.071 6.30333 102.484 6.2 102.944 6.2C103.444 6.2 103.891 6.31333 104.284 6.54C104.684 6.76 104.997 7.07333 105.224 7.48C105.451 7.88 105.564 8.34333 105.564 8.87C105.564 9.40333 105.451 9.87 105.224 10.27C104.997 10.67 104.684 10.9833 104.284 11.21C103.891 11.4367 103.444 11.55 102.944 11.55ZM100.234 13.44V6.25H100.914V7.83L100.844 8.88L100.944 9.94V13.44H100.234ZM102.894 10.92C103.267 10.92 103.601 10.8367 103.894 10.67C104.187 10.4967 104.421 10.2567 104.594 9.95C104.767 9.63667 104.854 9.27667 104.854 8.87C104.854 8.46333 104.767 8.10667 104.594 7.8C104.421 7.49333 104.187 7.25333 103.894 7.08C103.601 6.90667 103.267 6.82 102.894 6.82C102.521 6.82 102.184 6.90667 101.884 7.08C101.591 7.25333 101.357 7.49333 101.184 7.8C101.017 8.10667 100.934 8.46333 100.934 8.87C100.934 9.27667 101.017 9.63667 101.184 9.95C101.357 10.2567 101.591 10.4967 101.884 10.67C102.184 10.8367 102.521 10.92 102.894 10.92ZM110.272 11.5V10.34L110.242 10.15V8.21C110.242 7.76333 110.116 7.42 109.862 7.18C109.616 6.94 109.246 6.82 108.752 6.82C108.412 6.82 108.089 6.87667 107.782 6.99C107.476 7.10333 107.216 7.25333 107.002 7.44L106.682 6.91C106.949 6.68333 107.269 6.51 107.642 6.39C108.016 6.26333 108.409 6.2 108.822 6.2C109.502 6.2 110.026 6.37 110.392 6.71C110.766 7.04333 110.952 7.55333 110.952 8.24V11.5H110.272ZM108.462 11.55C108.069 11.55 107.726 11.4867 107.432 11.36C107.146 11.2267 106.926 11.0467 106.772 10.82C106.619 10.5867 106.542 10.32 106.542 10.02C106.542 9.74667 106.606 9.5 106.732 9.28C106.866 9.05333 107.079 8.87333 107.372 8.74C107.672 8.6 108.072 8.53 108.572 8.53H110.382V9.06H108.592C108.086 9.06 107.732 9.15 107.532 9.33C107.339 9.51 107.242 9.73333 107.242 10C107.242 10.3 107.359 10.54 107.592 10.72C107.826 10.9 108.152 10.99 108.572 10.99C108.972 10.99 109.316 10.9 109.602 10.72C109.896 10.5333 110.109 10.2667 110.242 9.92L110.402 10.41C110.269 10.7567 110.036 11.0333 109.702 11.24C109.376 11.4467 108.962 11.55 108.462 11.55ZM115.061 11.55C114.541 11.55 114.074 11.4367 113.661 11.21C113.254 10.9767 112.934 10.66 112.701 10.26C112.467 9.85333 112.351 9.39 112.351 8.87C112.351 8.34333 112.467 7.88 112.701 7.48C112.934 7.08 113.254 6.76667 113.661 6.54C114.074 6.31333 114.541 6.2 115.061 6.2C115.507 6.2 115.911 6.28667 116.271 6.46C116.631 6.63333 116.914 6.89333 117.121 7.24L116.591 7.6C116.411 7.33333 116.187 7.13667 115.921 7.01C115.654 6.88333 115.364 6.82 115.051 6.82C114.677 6.82 114.341 6.90667 114.041 7.08C113.741 7.24667 113.504 7.48333 113.331 7.79C113.157 8.09667 113.071 8.45667 113.071 8.87C113.071 9.28333 113.157 9.64333 113.331 9.95C113.504 10.2567 113.741 10.4967 114.041 10.67C114.341 10.8367 114.677 10.92 115.051 10.92C115.364 10.92 115.654 10.8567 115.921 10.73C116.187 10.6033 116.411 10.41 116.591 10.15L117.121 10.51C116.914 10.85 116.631 11.11 116.271 11.29C115.911 11.4633 115.507 11.55 115.061 11.55ZM118.997 10.14L119.017 9.23L122.287 6.25H123.157L120.847 8.46L120.447 8.8L118.997 10.14ZM118.437 11.5V4.08H119.147V11.5H118.437ZM122.507 11.5L120.317 8.77L120.777 8.22L123.377 11.5H122.507ZM125.697 11.55C125.264 11.55 124.854 11.49 124.467 11.37C124.08 11.2433 123.777 11.0867 123.557 10.9L123.877 10.34C124.09 10.5 124.364 10.64 124.697 10.76C125.03 10.8733 125.38 10.93 125.747 10.93C126.247 10.93 126.607 10.8533 126.827 10.7C127.047 10.54 127.157 10.33 127.157 10.07C127.157 9.87667 127.094 9.72667 126.967 9.62C126.847 9.50667 126.687 9.42333 126.487 9.37C126.287 9.31 126.064 9.26 125.817 9.22C125.57 9.18 125.324 9.13333 125.077 9.08C124.837 9.02667 124.617 8.95 124.417 8.85C124.217 8.74333 124.054 8.6 123.927 8.42C123.807 8.24 123.747 8 123.747 7.7C123.747 7.41333 123.827 7.15667 123.987 6.93C124.147 6.70333 124.38 6.52667 124.687 6.4C125 6.26667 125.38 6.2 125.827 6.2C126.167 6.2 126.507 6.24667 126.847 6.34C127.187 6.42667 127.467 6.54333 127.687 6.69L127.377 7.26C127.144 7.1 126.894 6.98667 126.627 6.92C126.36 6.84667 126.094 6.81 125.827 6.81C125.354 6.81 125.004 6.89333 124.777 7.06C124.557 7.22 124.447 7.42667 124.447 7.68C124.447 7.88 124.507 8.03667 124.627 8.15C124.754 8.26333 124.917 8.35333 125.117 8.42C125.324 8.48 125.547 8.53 125.787 8.57C126.034 8.61 126.277 8.66 126.517 8.72C126.764 8.77333 126.987 8.85 127.187 8.95C127.394 9.04333 127.557 9.18 127.677 9.36C127.804 9.53333 127.867 9.76333 127.867 10.05C127.867 10.3567 127.78 10.6233 127.607 10.85C127.44 11.07 127.194 11.2433 126.867 11.37C126.547 11.49 126.157 11.55 125.697 11.55ZM129.24 11.55C129.093 11.55 128.966 11.4967 128.86 11.39C128.76 11.2833 128.71 11.1533 128.71 11C128.71 10.84 128.76 10.71 128.86 10.61C128.966 10.51 129.093 10.46 129.24 10.46C129.386 10.46 129.51 10.51 129.61 10.61C129.716 10.71 129.77 10.84 129.77 11C129.77 11.1533 129.716 11.2833 129.61 11.39C129.51 11.4967 129.386 11.55 129.24 11.55ZM133.322 11.55C132.802 11.55 132.336 11.4367 131.922 11.21C131.516 10.9767 131.196 10.66 130.962 10.26C130.729 9.85333 130.612 9.39 130.612 8.87C130.612 8.34333 130.729 7.88 130.962 7.48C131.196 7.08 131.516 6.76667 131.922 6.54C132.336 6.31333 132.802 6.2 133.322 6.2C133.769 6.2 134.172 6.28667 134.532 6.46C134.892 6.63333 135.176 6.89333 135.382 7.24L134.852 7.6C134.672 7.33333 134.449 7.13667 134.182 7.01C133.916 6.88333 133.626 6.82 133.312 6.82C132.939 6.82 132.602 6.90667 132.302 7.08C132.002 7.24667 131.766 7.48333 131.592 7.79C131.419 8.09667 131.332 8.45667 131.332 8.87C131.332 9.28333 131.419 9.64333 131.592 9.95C131.766 10.2567 132.002 10.4967 132.302 10.67C132.602 10.8367 132.939 10.92 133.312 10.92C133.626 10.92 133.916 10.8567 134.182 10.73C134.449 10.6033 134.672 10.41 134.852 10.15L135.382 10.51C135.176 10.85 134.892 11.11 134.532 11.29C134.172 11.4633 133.769 11.55 133.322 11.55ZM138.829 11.55C138.323 11.55 137.866 11.4367 137.459 11.21C137.059 10.9767 136.743 10.66 136.509 10.26C136.276 9.85333 136.159 9.39 136.159 8.87C136.159 8.34333 136.276 7.88 136.509 7.48C136.743 7.08 137.059 6.76667 137.459 6.54C137.859 6.31333 138.316 6.2 138.829 6.2C139.349 6.2 139.809 6.31333 140.209 6.54C140.616 6.76667 140.933 7.08 141.159 7.48C141.393 7.88 141.509 8.34333 141.509 8.87C141.509 9.39 141.393 9.85333 141.159 10.26C140.933 10.66 140.616 10.9767 140.209 11.21C139.803 11.4367 139.343 11.55 138.829 11.55ZM138.829 10.92C139.209 10.92 139.546 10.8367 139.839 10.67C140.133 10.4967 140.363 10.2567 140.529 9.95C140.703 9.63667 140.789 9.27667 140.789 8.87C140.789 8.45667 140.703 8.09667 140.529 7.79C140.363 7.48333 140.133 7.24667 139.839 7.08C139.546 6.90667 139.213 6.82 138.839 6.82C138.466 6.82 138.133 6.90667 137.839 7.08C137.546 7.24667 137.313 7.48333 137.139 7.79C136.966 8.09667 136.879 8.45667 136.879 8.87C136.879 9.27667 136.966 9.63667 137.139 9.95C137.313 10.2567 137.546 10.4967 137.839 10.67C138.133 10.8367 138.463 10.92 138.829 10.92ZM149.519 6.2C149.945 6.2 150.315 6.28333 150.629 6.45C150.949 6.61 151.195 6.85667 151.369 7.19C151.549 7.52333 151.639 7.94333 151.639 8.45V11.5H150.929V8.52C150.929 7.96667 150.795 7.55 150.529 7.27C150.269 6.98333 149.899 6.84 149.419 6.84C149.059 6.84 148.745 6.91667 148.479 7.07C148.219 7.21667 148.015 7.43333 147.869 7.72C147.729 8 147.659 8.34 147.659 8.74V11.5H146.949V8.52C146.949 7.96667 146.815 7.55 146.549 7.27C146.282 6.98333 145.909 6.84 145.429 6.84C145.075 6.84 144.765 6.91667 144.499 7.07C144.232 7.21667 144.025 7.43333 143.879 7.72C143.739 8 143.669 8.34 143.669 8.74V11.5H142.959V6.25H143.639V7.67L143.529 7.42C143.689 7.04 143.945 6.74333 144.299 6.53C144.659 6.31 145.082 6.2 145.569 6.2C146.082 6.2 146.519 6.33 146.879 6.59C147.239 6.84333 147.472 7.22667 147.579 7.74L147.299 7.63C147.452 7.20333 147.722 6.86 148.109 6.6C148.502 6.33333 148.972 6.2 149.519 6.2Z" fill="black"/>
</svg>
