<svg width="245" height="26" viewBox="0 0 245 26" fill="none" xmlns="http://www.w3.org/2000/svg">
<path d="M8 6.33301C9.5913 6.33301 11.1174 6.96515 12.2426 8.09037C13.3679 9.21558 14 10.7417 14 12.333C14 14.3823 12.8827 16.0597 11.7053 17.263C11.1171 17.8577 10.4753 18.3969 9.788 18.8737L9.504 19.067L9.37067 19.1557L9.11933 19.3157L8.89533 19.4523L8.618 19.6137C8.42976 19.7211 8.21675 19.7776 8 19.7776C7.78325 19.7776 7.57024 19.7211 7.382 19.6137L7.10467 19.4523L6.758 19.239L6.63 19.1557L6.35667 18.9737C5.61522 18.472 4.9246 17.8991 4.29467 17.263C3.11733 16.059 2 14.3823 2 12.333C2 10.7417 2.63214 9.21558 3.75736 8.09037C4.88258 6.96515 6.4087 6.33301 8 6.33301ZM8 10.333C7.73736 10.333 7.47728 10.3847 7.23463 10.4852C6.99198 10.5858 6.7715 10.7331 6.58579 10.9188C6.40007 11.1045 6.25275 11.325 6.15224 11.5676C6.05173 11.8103 6 12.0704 6 12.333C6 12.5957 6.05173 12.8557 6.15224 13.0984C6.25275 13.341 6.40007 13.5615 6.58579 13.7472C6.7715 13.9329 6.99198 14.0803 7.23463 14.1808C7.47728 14.2813 7.73736 14.333 8 14.333C8.53043 14.333 9.03914 14.1223 9.41421 13.7472C9.78929 13.3721 10 12.8634 10 12.333C10 11.8026 9.78929 11.2939 9.41421 10.9188C9.03914 10.5437 8.53043 10.333 8 10.333Z" fill="black"/>
<path d="M25.74 10V3.3L26.06 3.64H24.09V3H26.46V10H25.74ZM28.0033 10V9.49L30.9133 6.64C31.1799 6.38 31.3799 6.15333 31.5133 5.96C31.6466 5.76 31.7366 5.57333 31.7833 5.4C31.8299 5.22667 31.8533 5.06333 31.8533 4.91C31.8533 4.50333 31.7133 4.18333 31.4333 3.95C31.1599 3.71667 30.7533 3.6 30.2133 3.6C29.7999 3.6 29.4333 3.66333 29.1133 3.79C28.7999 3.91667 28.5299 4.11333 28.3033 4.38L27.7933 3.94C28.0666 3.62 28.4166 3.37333 28.8433 3.2C29.2699 3.02667 29.7466 2.94 30.2733 2.94C30.7466 2.94 31.1566 3.01667 31.5033 3.17C31.8499 3.31667 32.1166 3.53333 32.3033 3.82C32.4966 4.10667 32.5933 4.44333 32.5933 4.83C32.5933 5.05667 32.5599 5.28 32.4933 5.5C32.4333 5.72 32.3199 5.95333 32.1533 6.2C31.9933 6.44 31.7566 6.71333 31.4433 7.02L28.7733 9.64L28.5733 9.36H32.9133V10H28.0033ZM36.0269 10.06C35.5269 10.06 35.0502 9.98 34.5969 9.82C34.1435 9.65333 33.7835 9.43333 33.5169 9.16L33.8669 8.59C34.0869 8.82333 34.3869 9.01667 34.7669 9.17C35.1535 9.32333 35.5702 9.4 36.0169 9.4C36.6102 9.4 37.0602 9.27 37.3669 9.01C37.6802 8.74333 37.8369 8.39667 37.8369 7.97C37.8369 7.67 37.7635 7.41333 37.6169 7.2C37.4769 6.98 37.2369 6.81 36.8969 6.69C36.5569 6.57 36.0902 6.51 35.4969 6.51H34.0069L34.3669 3H38.1969V3.64H34.6569L35.0269 3.29L34.7169 6.23L34.3469 5.87H35.6569C36.3635 5.87 36.9302 5.95667 37.3569 6.13C37.7835 6.30333 38.0902 6.54667 38.2769 6.86C38.4702 7.16667 38.5669 7.52667 38.5669 7.94C38.5669 8.33333 38.4735 8.69333 38.2869 9.02C38.1002 9.34 37.8202 9.59333 37.4469 9.78C37.0735 9.96667 36.6002 10.06 36.0269 10.06ZM39.5209 11.46L39.9609 9.61L40.0409 10.04C39.8876 10.04 39.7576 9.99 39.6509 9.89C39.5509 9.79 39.5009 9.66 39.5009 9.5C39.5009 9.34 39.5509 9.21 39.6509 9.11C39.7576 9.01 39.8843 8.96 40.0309 8.96C40.1843 8.96 40.3076 9.01333 40.4009 9.12C40.5009 9.22667 40.5509 9.35333 40.5509 9.5C40.5509 9.55333 40.5476 9.60667 40.5409 9.66C40.5343 9.71333 40.5209 9.77333 40.5009 9.84C40.4809 9.90667 40.4543 9.98667 40.4209 10.08L40.0009 11.46H39.5209ZM45.4773 8.26L45.4473 7.36L49.6873 3H50.5373L47.4473 6.24L47.0273 6.69L45.4773 8.26ZM44.8373 10V3H45.5773V10H44.8373ZM49.8673 10L46.8473 6.52L47.3473 5.98L50.7473 10H49.8673ZM53.7811 10.05C53.3344 10.05 52.9444 9.96667 52.6111 9.8C52.2778 9.63333 52.0178 9.38333 51.8311 9.05C51.6511 8.71667 51.5611 8.3 51.5611 7.8V4.75H52.2711V7.72C52.2711 8.28 52.4078 8.70333 52.6811 8.99C52.9611 9.27 53.3511 9.41 53.8511 9.41C54.2178 9.41 54.5344 9.33667 54.8011 9.19C55.0744 9.03667 55.2811 8.81667 55.4211 8.53C55.5678 8.24333 55.6411 7.9 55.6411 7.5V4.75H56.3511V10H55.6711V8.56L55.7811 8.82C55.6144 9.20667 55.3544 9.51 55.0011 9.73C54.6544 9.94333 54.2478 10.05 53.7811 10.05ZM64.8898 4.7C65.3165 4.7 65.6865 4.78333 65.9998 4.95C66.3198 5.11 66.5665 5.35667 66.7398 5.69C66.9198 6.02333 67.0098 6.44333 67.0098 6.95V10H66.2998V7.02C66.2998 6.46667 66.1665 6.05 65.8998 5.77C65.6398 5.48333 65.2698 5.34 64.7898 5.34C64.4298 5.34 64.1165 5.41667 63.8498 5.57C63.5898 5.71667 63.3865 5.93333 63.2398 6.22C63.0998 6.5 63.0298 6.84 63.0298 7.24V10H62.3198V7.02C62.3198 6.46667 62.1865 6.05 61.9198 5.77C61.6532 5.48333 61.2798 5.34 60.7998 5.34C60.4465 5.34 60.1365 5.41667 59.8698 5.57C59.6032 5.71667 59.3965 5.93333 59.2498 6.22C59.1098 6.5 59.0398 6.84 59.0398 7.24V10H58.3298V4.75H59.0098V6.17L58.8998 5.92C59.0598 5.54 59.3165 5.24333 59.6698 5.03C60.0298 4.81 60.4532 4.7 60.9398 4.7C61.4532 4.7 61.8898 4.83 62.2498 5.09C62.6098 5.34333 62.8432 5.72667 62.9498 6.24L62.6698 6.13C62.8232 5.70333 63.0932 5.36 63.4798 5.1C63.8732 4.83333 64.3432 4.7 64.8898 4.7ZM72.2253 10V8.84L72.1953 8.65V6.71C72.1953 6.26333 72.0686 5.92 71.8153 5.68C71.5686 5.44 71.1986 5.32 70.7053 5.32C70.3653 5.32 70.042 5.37667 69.7353 5.49C69.4286 5.60333 69.1686 5.75333 68.9553 5.94L68.6353 5.41C68.902 5.18333 69.222 5.01 69.5953 4.89C69.9686 4.76333 70.362 4.7 70.7753 4.7C71.4553 4.7 71.9786 4.87 72.3453 5.21C72.7186 5.54333 72.9053 6.05333 72.9053 6.74V10H72.2253ZM70.4153 10.05C70.022 10.05 69.6786 9.98667 69.3853 9.86C69.0986 9.72667 68.8786 9.54667 68.7253 9.32C68.572 9.08667 68.4953 8.82 68.4953 8.52C68.4953 8.24667 68.5586 8 68.6853 7.78C68.8186 7.55333 69.032 7.37333 69.3253 7.24C69.6253 7.1 70.0253 7.03 70.5253 7.03H72.3353V7.56H70.5453C70.0386 7.56 69.6853 7.65 69.4853 7.83C69.292 8.01 69.1953 8.23333 69.1953 8.5C69.1953 8.8 69.312 9.04 69.5453 9.22C69.7786 9.4 70.1053 9.49 70.5253 9.49C70.9253 9.49 71.2686 9.4 71.5553 9.22C71.8486 9.03333 72.062 8.76667 72.1953 8.42L72.3553 8.91C72.222 9.25667 71.9886 9.53333 71.6553 9.74C71.3286 9.94667 70.9153 10.05 70.4153 10.05ZM74.8338 10V4.75H75.5138V6.18L75.4438 5.93C75.5904 5.53 75.8371 5.22667 76.1838 5.02C76.5304 4.80667 76.9604 4.7 77.4738 4.7V5.39C77.4471 5.39 77.4204 5.39 77.3938 5.39C77.3671 5.38333 77.3404 5.38 77.3138 5.38C76.7604 5.38 76.3271 5.55 76.0138 5.89C75.7004 6.22333 75.5438 6.7 75.5438 7.32V10H74.8338ZM81.6687 10V8.84L81.6387 8.65V6.71C81.6387 6.26333 81.512 5.92 81.2587 5.68C81.012 5.44 80.642 5.32 80.1487 5.32C79.8087 5.32 79.4853 5.37667 79.1787 5.49C78.872 5.60333 78.612 5.75333 78.3987 5.94L78.0787 5.41C78.3453 5.18333 78.6653 5.01 79.0387 4.89C79.412 4.76333 79.8053 4.7 80.2187 4.7C80.8987 4.7 81.422 4.87 81.7887 5.21C82.162 5.54333 82.3487 6.05333 82.3487 6.74V10H81.6687ZM79.8587 10.05C79.4653 10.05 79.122 9.98667 78.8287 9.86C78.542 9.72667 78.322 9.54667 78.1687 9.32C78.0153 9.08667 77.9387 8.82 77.9387 8.52C77.9387 8.24667 78.002 8 78.1287 7.78C78.262 7.55333 78.4753 7.37333 78.7687 7.24C79.0687 7.1 79.4687 7.03 79.9687 7.03H81.7787V7.56H79.9887C79.482 7.56 79.1287 7.65 78.9287 7.83C78.7353 8.01 78.6387 8.23333 78.6387 8.5C78.6387 8.8 78.7553 9.04 78.9887 9.22C79.222 9.4 79.5487 9.49 79.9687 9.49C80.3687 9.49 80.712 9.4 80.9987 9.22C81.292 9.03333 81.5053 8.76667 81.6387 8.42L81.7987 8.91C81.6653 9.25667 81.432 9.53333 81.0987 9.74C80.772 9.94667 80.3587 10.05 79.8587 10.05ZM86.9571 4.7C87.3838 4.7 87.7571 4.78333 88.0771 4.95C88.4038 5.11 88.6571 5.35667 88.8371 5.69C89.0238 6.02333 89.1171 6.44333 89.1171 6.95V10H88.4071V7.02C88.4071 6.46667 88.2671 6.05 87.9871 5.77C87.7138 5.48333 87.3271 5.34 86.8271 5.34C86.4538 5.34 86.1271 5.41667 85.8471 5.57C85.5738 5.71667 85.3604 5.93333 85.2071 6.22C85.0604 6.5 84.9871 6.84 84.9871 7.24V10H84.2771V4.75H84.9571V6.19L84.8471 5.92C85.0138 5.54 85.2804 5.24333 85.6471 5.03C86.0138 4.81 86.4504 4.7 86.9571 4.7ZM95.8921 11.99C95.4121 11.99 94.9521 11.92 94.5121 11.78C94.0721 11.64 93.7154 11.44 93.4421 11.18L93.8021 10.64C94.0488 10.86 94.3521 11.0333 94.7121 11.16C95.0788 11.2933 95.4654 11.36 95.8721 11.36C96.5388 11.36 97.0288 11.2033 97.3421 10.89C97.6554 10.5833 97.8121 10.1033 97.8121 9.45V8.14L97.9121 7.24L97.8421 6.34V4.75H98.5221V9.36C98.5221 10.2667 98.2988 10.93 97.8521 11.35C97.4121 11.7767 96.7588 11.99 95.8921 11.99ZM95.7621 9.8C95.2621 9.8 94.8121 9.69333 94.4121 9.48C94.0121 9.26 93.6954 8.95667 93.4621 8.57C93.2354 8.18333 93.1221 7.74 93.1221 7.24C93.1221 6.74 93.2354 6.3 93.4621 5.92C93.6954 5.53333 94.0121 5.23333 94.4121 5.02C94.8121 4.80667 95.2621 4.7 95.7621 4.7C96.2288 4.7 96.6488 4.79667 97.0221 4.99C97.3954 5.18333 97.6921 5.47 97.9121 5.85C98.1321 6.23 98.2421 6.69333 98.2421 7.24C98.2421 7.78667 98.1321 8.25 97.9121 8.63C97.6921 9.01 97.3954 9.3 97.0221 9.5C96.6488 9.7 96.2288 9.8 95.7621 9.8ZM95.8321 9.17C96.2188 9.17 96.5621 9.09 96.8621 8.93C97.1621 8.76333 97.3988 8.53667 97.5721 8.25C97.7454 7.95667 97.8321 7.62 97.8321 7.24C97.8321 6.86 97.7454 6.52667 97.5721 6.24C97.3988 5.95333 97.1621 5.73 96.8621 5.57C96.5621 5.40333 96.2188 5.32 95.8321 5.32C95.4521 5.32 95.1088 5.40333 94.8021 5.57C94.5021 5.73 94.2654 5.95333 94.0921 6.24C93.9254 6.52667 93.8421 6.86 93.8421 7.24C93.8421 7.62 93.9254 7.95667 94.0921 8.25C94.2654 8.53667 94.5021 8.76333 94.8021 8.93C95.1088 9.09 95.4521 9.17 95.8321 9.17ZM103.788 10V8.84L103.758 8.65V6.71C103.758 6.26333 103.631 5.92 103.378 5.68C103.131 5.44 102.761 5.32 102.268 5.32C101.928 5.32 101.604 5.37667 101.298 5.49C100.991 5.60333 100.731 5.75333 100.518 5.94L100.198 5.41C100.464 5.18333 100.784 5.01 101.158 4.89C101.531 4.76333 101.924 4.7 102.338 4.7C103.018 4.7 103.541 4.87 103.908 5.21C104.281 5.54333 104.468 6.05333 104.468 6.74V10H103.788ZM101.978 10.05C101.584 10.05 101.241 9.98667 100.948 9.86C100.661 9.72667 100.441 9.54667 100.288 9.32C100.134 9.08667 100.058 8.82 100.058 8.52C100.058 8.24667 100.121 8 100.248 7.78C100.381 7.55333 100.594 7.37333 100.888 7.24C101.188 7.1 101.588 7.03 102.088 7.03H103.898V7.56H102.108C101.601 7.56 101.248 7.65 101.048 7.83C100.854 8.01 100.758 8.23333 100.758 8.5C100.758 8.8 100.874 9.04 101.108 9.22C101.341 9.4 101.668 9.49 102.088 9.49C102.488 9.49 102.831 9.4 103.118 9.22C103.411 9.03333 103.624 8.76667 103.758 8.42L103.918 8.91C103.784 9.25667 103.551 9.53333 103.218 9.74C102.891 9.94667 102.478 10.05 101.978 10.05ZM106.396 10V4.75H107.076V6.18L107.006 5.93C107.153 5.53 107.4 5.22667 107.746 5.02C108.093 4.80667 108.523 4.7 109.036 4.7V5.39C109.01 5.39 108.983 5.39 108.956 5.39C108.93 5.38333 108.903 5.38 108.876 5.38C108.323 5.38 107.89 5.55 107.576 5.89C107.263 6.22333 107.106 6.7 107.106 7.32V10H106.396ZM112.373 10.05C111.873 10.05 111.423 9.93667 111.023 9.71C110.63 9.48333 110.32 9.17 110.093 8.77C109.866 8.36333 109.753 7.89667 109.753 7.37C109.753 6.83667 109.866 6.37 110.093 5.97C110.32 5.57 110.63 5.26 111.023 5.04C111.423 4.81333 111.873 4.7 112.373 4.7C112.833 4.7 113.243 4.80333 113.603 5.01C113.97 5.21667 114.26 5.52 114.473 5.92C114.693 6.31333 114.803 6.79667 114.803 7.37C114.803 7.93667 114.696 8.42 114.483 8.82C114.27 9.22 113.98 9.52667 113.613 9.74C113.253 9.94667 112.84 10.05 112.373 10.05ZM112.423 9.42C112.796 9.42 113.13 9.33667 113.423 9.17C113.723 8.99667 113.956 8.75667 114.123 8.45C114.296 8.13667 114.383 7.77667 114.383 7.37C114.383 6.95667 114.296 6.59667 114.123 6.29C113.956 5.98333 113.723 5.74667 113.423 5.58C113.13 5.40667 112.796 5.32 112.423 5.32C112.056 5.32 111.726 5.40667 111.433 5.58C111.14 5.74667 110.906 5.98333 110.733 6.29C110.56 6.59667 110.473 6.95667 110.473 7.37C110.473 7.77667 110.56 8.13667 110.733 8.45C110.906 8.75667 111.14 8.99667 111.433 9.17C111.726 9.33667 112.056 9.42 112.423 9.42ZM114.403 10V8.42L114.473 7.36L114.373 6.3V2.58H115.083V10H114.403ZM119.29 10.05C118.744 10.05 118.264 9.93667 117.85 9.71C117.437 9.47667 117.114 9.16 116.88 8.76C116.647 8.35333 116.53 7.89 116.53 7.37C116.53 6.85 116.64 6.39 116.86 5.99C117.087 5.59 117.394 5.27667 117.78 5.05C118.174 4.81667 118.614 4.7 119.1 4.7C119.594 4.7 120.03 4.81333 120.41 5.04C120.797 5.26 121.1 5.57333 121.32 5.98C121.54 6.38 121.65 6.84333 121.65 7.37C121.65 7.40333 121.647 7.44 121.64 7.48C121.64 7.51333 121.64 7.55 121.64 7.59H117.07V7.06H121.26L120.98 7.27C120.98 6.89 120.897 6.55333 120.73 6.26C120.57 5.96 120.35 5.72667 120.07 5.56C119.79 5.39333 119.467 5.31 119.1 5.31C118.74 5.31 118.417 5.39333 118.13 5.56C117.844 5.72667 117.62 5.96 117.46 6.26C117.3 6.56 117.22 6.90333 117.22 7.29V7.4C117.22 7.8 117.307 8.15333 117.48 8.46C117.66 8.76 117.907 8.99667 118.22 9.17C118.54 9.33667 118.904 9.42 119.31 9.42C119.63 9.42 119.927 9.36333 120.2 9.25C120.48 9.13667 120.72 8.96333 120.92 8.73L121.32 9.19C121.087 9.47 120.794 9.68333 120.44 9.83C120.094 9.97667 119.71 10.05 119.29 10.05ZM125.775 4.7C126.202 4.7 126.575 4.78333 126.895 4.95C127.222 5.11 127.475 5.35667 127.655 5.69C127.842 6.02333 127.935 6.44333 127.935 6.95V10H127.225V7.02C127.225 6.46667 127.085 6.05 126.805 5.77C126.532 5.48333 126.145 5.34 125.645 5.34C125.272 5.34 124.945 5.41667 124.665 5.57C124.392 5.71667 124.179 5.93333 124.025 6.22C123.879 6.5 123.805 6.84 123.805 7.24V10H123.095V4.75H123.775V6.19L123.665 5.92C123.832 5.54 124.099 5.24333 124.465 5.03C124.832 4.81 125.269 4.7 125.775 4.7ZM129.423 11.46L129.863 9.61L129.943 10.04C129.79 10.04 129.66 9.99 129.553 9.89C129.453 9.79 129.403 9.66 129.403 9.5C129.403 9.34 129.453 9.21 129.553 9.11C129.66 9.01 129.787 8.96 129.933 8.96C130.087 8.96 130.21 9.01333 130.303 9.12C130.403 9.22667 130.453 9.35333 130.453 9.5C130.453 9.55333 130.45 9.60667 130.443 9.66C130.437 9.71333 130.423 9.77333 130.403 9.84C130.383 9.90667 130.357 9.98667 130.323 10.08L129.903 11.46H129.423ZM135.4 6.13H139.1V6.76H135.4V6.13ZM135.48 9.36H139.69V10H134.74V3H139.54V3.64H135.48V9.36ZM143.291 10.05C142.791 10.05 142.341 9.93667 141.941 9.71C141.548 9.48333 141.238 9.17 141.011 8.77C140.784 8.36333 140.671 7.89667 140.671 7.37C140.671 6.83667 140.784 6.37 141.011 5.97C141.238 5.57 141.548 5.26 141.941 5.04C142.341 4.81333 142.791 4.7 143.291 4.7C143.751 4.7 144.161 4.80333 144.521 5.01C144.888 5.21667 145.178 5.52 145.391 5.92C145.611 6.31333 145.721 6.79667 145.721 7.37C145.721 7.93667 145.614 8.42 145.401 8.82C145.188 9.22 144.898 9.52667 144.531 9.74C144.171 9.94667 143.758 10.05 143.291 10.05ZM143.341 9.42C143.714 9.42 144.048 9.33667 144.341 9.17C144.641 8.99667 144.874 8.75667 145.041 8.45C145.214 8.13667 145.301 7.77667 145.301 7.37C145.301 6.95667 145.214 6.59667 145.041 6.29C144.874 5.98333 144.641 5.74667 144.341 5.58C144.048 5.40667 143.714 5.32 143.341 5.32C142.974 5.32 142.644 5.40667 142.351 5.58C142.058 5.74667 141.824 5.98333 141.651 6.29C141.478 6.59667 141.391 6.95667 141.391 7.37C141.391 7.77667 141.478 8.13667 141.651 8.45C141.824 8.75667 142.058 8.99667 142.351 9.17C142.644 9.33667 142.974 9.42 143.341 9.42ZM145.321 10V8.42L145.391 7.36L145.291 6.3V2.58H146.001V10H145.321ZM151.268 10V8.84L151.238 8.65V6.71C151.238 6.26333 151.112 5.92 150.858 5.68C150.612 5.44 150.242 5.32 149.748 5.32C149.408 5.32 149.085 5.37667 148.778 5.49C148.472 5.60333 148.212 5.75333 147.998 5.94L147.678 5.41C147.945 5.18333 148.265 5.01 148.638 4.89C149.012 4.76333 149.405 4.7 149.818 4.7C150.498 4.7 151.022 4.87 151.388 5.21C151.762 5.54333 151.948 6.05333 151.948 6.74V10H151.268ZM149.458 10.05C149.065 10.05 148.722 9.98667 148.428 9.86C148.142 9.72667 147.922 9.54667 147.768 9.32C147.615 9.08667 147.538 8.82 147.538 8.52C147.538 8.24667 147.602 8 147.728 7.78C147.862 7.55333 148.075 7.37333 148.368 7.24C148.668 7.1 149.068 7.03 149.568 7.03H151.378V7.56H149.588C149.082 7.56 148.728 7.65 148.528 7.83C148.335 8.01 148.238 8.23333 148.238 8.5C148.238 8.8 148.355 9.04 148.588 9.22C148.822 9.4 149.148 9.49 149.568 9.49C149.968 9.49 150.312 9.4 150.598 9.22C150.892 9.03333 151.105 8.76667 151.238 8.42L151.398 8.91C151.265 9.25667 151.032 9.53333 150.698 9.74C150.372 9.94667 149.958 10.05 149.458 10.05ZM153.819 11.99C153.572 11.99 153.336 11.95 153.109 11.87C152.889 11.79 152.699 11.67 152.539 11.51L152.869 10.98C153.002 11.1067 153.146 11.2033 153.299 11.27C153.459 11.3433 153.636 11.38 153.829 11.38C154.062 11.38 154.262 11.3133 154.429 11.18C154.602 11.0533 154.766 10.8267 154.919 10.5L155.259 9.73L155.339 9.62L157.499 4.75H158.199L155.569 10.63C155.422 10.97 155.259 11.24 155.079 11.44C154.906 11.64 154.716 11.78 154.509 11.86C154.302 11.9467 154.072 11.99 153.819 11.99ZM155.219 10.15L152.799 4.75H153.539L155.679 9.57L155.219 10.15ZM162.333 10V8.84L162.303 8.65V6.71C162.303 6.26333 162.176 5.92 161.923 5.68C161.676 5.44 161.306 5.32 160.813 5.32C160.473 5.32 160.149 5.37667 159.843 5.49C159.536 5.60333 159.276 5.75333 159.063 5.94L158.743 5.41C159.009 5.18333 159.329 5.01 159.703 4.89C160.076 4.76333 160.469 4.7 160.883 4.7C161.563 4.7 162.086 4.87 162.453 5.21C162.826 5.54333 163.013 6.05333 163.013 6.74V10H162.333ZM160.523 10.05C160.129 10.05 159.786 9.98667 159.493 9.86C159.206 9.72667 158.986 9.54667 158.833 9.32C158.679 9.08667 158.603 8.82 158.603 8.52C158.603 8.24667 158.666 8 158.793 7.78C158.926 7.55333 159.139 7.37333 159.433 7.24C159.733 7.1 160.133 7.03 160.633 7.03H162.443V7.56H160.653C160.146 7.56 159.793 7.65 159.593 7.83C159.399 8.01 159.303 8.23333 159.303 8.5C159.303 8.8 159.419 9.04 159.653 9.22C159.886 9.4 160.213 9.49 160.633 9.49C161.033 9.49 161.376 9.4 161.663 9.22C161.956 9.03333 162.169 8.76667 162.303 8.42L162.463 8.91C162.329 9.25667 162.096 9.53333 161.763 9.74C161.436 9.94667 161.023 10.05 160.523 10.05ZM164.941 10V4.75H165.621V6.18L165.551 5.93C165.698 5.53 165.945 5.22667 166.291 5.02C166.638 4.80667 167.068 4.7 167.581 4.7V5.39C167.555 5.39 167.528 5.39 167.501 5.39C167.475 5.38333 167.448 5.38 167.421 5.38C166.868 5.38 166.435 5.55 166.121 5.89C165.808 6.22333 165.651 6.7 165.651 7.32V10H164.941ZM171.587 10.05C171.133 10.05 170.723 9.94667 170.357 9.74C169.99 9.52667 169.697 9.22333 169.477 8.83C169.263 8.43 169.157 7.94333 169.157 7.37C169.157 6.79667 169.263 6.31333 169.477 5.92C169.69 5.52 169.98 5.21667 170.347 5.01C170.713 4.80333 171.127 4.7 171.587 4.7C172.087 4.7 172.533 4.81333 172.927 5.04C173.327 5.26 173.64 5.57333 173.867 5.98C174.093 6.38 174.207 6.84333 174.207 7.37C174.207 7.90333 174.093 8.37 173.867 8.77C173.64 9.17 173.327 9.48333 172.927 9.71C172.533 9.93667 172.087 10.05 171.587 10.05ZM168.877 11.94V4.75H169.557V6.33L169.487 7.38L169.587 8.44V11.94H168.877ZM171.537 9.42C171.91 9.42 172.243 9.33667 172.537 9.17C172.83 8.99667 173.063 8.75667 173.237 8.45C173.41 8.13667 173.497 7.77667 173.497 7.37C173.497 6.96333 173.41 6.60667 173.237 6.3C173.063 5.99333 172.83 5.75333 172.537 5.58C172.243 5.40667 171.91 5.32 171.537 5.32C171.163 5.32 170.827 5.40667 170.527 5.58C170.233 5.75333 170 5.99333 169.827 6.3C169.66 6.60667 169.577 6.96333 169.577 7.37C169.577 7.77667 169.66 8.13667 169.827 8.45C170 8.75667 170.233 8.99667 170.527 9.17C170.827 9.33667 171.163 9.42 171.537 9.42ZM178.915 10V8.84L178.885 8.65V6.71C178.885 6.26333 178.758 5.92 178.505 5.68C178.258 5.44 177.888 5.32 177.395 5.32C177.055 5.32 176.731 5.37667 176.425 5.49C176.118 5.60333 175.858 5.75333 175.645 5.94L175.325 5.41C175.591 5.18333 175.911 5.01 176.285 4.89C176.658 4.76333 177.051 4.7 177.465 4.7C178.145 4.7 178.668 4.87 179.035 5.21C179.408 5.54333 179.595 6.05333 179.595 6.74V10H178.915ZM177.105 10.05C176.711 10.05 176.368 9.98667 176.075 9.86C175.788 9.72667 175.568 9.54667 175.415 9.32C175.261 9.08667 175.185 8.82 175.185 8.52C175.185 8.24667 175.248 8 175.375 7.78C175.508 7.55333 175.721 7.37333 176.015 7.24C176.315 7.1 176.715 7.03 177.215 7.03H179.025V7.56H177.235C176.728 7.56 176.375 7.65 176.175 7.83C175.981 8.01 175.885 8.23333 175.885 8.5C175.885 8.8 176.001 9.04 176.235 9.22C176.468 9.4 176.795 9.49 177.215 9.49C177.615 9.49 177.958 9.4 178.245 9.22C178.538 9.03333 178.751 8.76667 178.885 8.42L179.045 8.91C178.911 9.25667 178.678 9.53333 178.345 9.74C178.018 9.94667 177.605 10.05 177.105 10.05ZM181.523 10V2.58H182.233V10H181.523ZM187.499 10V8.84L187.469 8.65V6.71C187.469 6.26333 187.342 5.92 187.089 5.68C186.842 5.44 186.472 5.32 185.979 5.32C185.639 5.32 185.315 5.37667 185.009 5.49C184.702 5.60333 184.442 5.75333 184.229 5.94L183.909 5.41C184.175 5.18333 184.495 5.01 184.869 4.89C185.242 4.76333 185.635 4.7 186.049 4.7C186.729 4.7 187.252 4.87 187.619 5.21C187.992 5.54333 188.179 6.05333 188.179 6.74V10H187.499ZM185.689 10.05C185.295 10.05 184.952 9.98667 184.659 9.86C184.372 9.72667 184.152 9.54667 183.999 9.32C183.845 9.08667 183.769 8.82 183.769 8.52C183.769 8.24667 183.832 8 183.959 7.78C184.092 7.55333 184.305 7.37333 184.599 7.24C184.899 7.1 185.299 7.03 185.799 7.03H187.609V7.56H185.819C185.312 7.56 184.959 7.65 184.759 7.83C184.565 8.01 184.469 8.23333 184.469 8.5C184.469 8.8 184.585 9.04 184.819 9.22C185.052 9.4 185.379 9.49 185.799 9.49C186.199 9.49 186.542 9.4 186.829 9.22C187.122 9.03333 187.335 8.76667 187.469 8.42L187.629 8.91C187.495 9.25667 187.262 9.53333 186.929 9.74C186.602 9.94667 186.189 10.05 185.689 10.05ZM190.05 11.99C189.803 11.99 189.566 11.95 189.34 11.87C189.12 11.79 188.93 11.67 188.77 11.51L189.1 10.98C189.233 11.1067 189.376 11.2033 189.53 11.27C189.69 11.3433 189.866 11.38 190.06 11.38C190.293 11.38 190.493 11.3133 190.66 11.18C190.833 11.0533 190.996 10.8267 191.15 10.5L191.49 9.73L191.57 9.62L193.73 4.75H194.43L191.8 10.63C191.653 10.97 191.49 11.24 191.31 11.44C191.136 11.64 190.946 11.78 190.74 11.86C190.533 11.9467 190.303 11.99 190.05 11.99ZM191.45 10.15L189.03 4.75H189.77L191.91 9.57L191.45 10.15ZM198.563 10V8.84L198.533 8.65V6.71C198.533 6.26333 198.407 5.92 198.153 5.68C197.907 5.44 197.537 5.32 197.043 5.32C196.703 5.32 196.38 5.37667 196.073 5.49C195.767 5.60333 195.507 5.75333 195.293 5.94L194.973 5.41C195.24 5.18333 195.56 5.01 195.933 4.89C196.307 4.76333 196.7 4.7 197.113 4.7C197.793 4.7 198.317 4.87 198.683 5.21C199.057 5.54333 199.243 6.05333 199.243 6.74V10H198.563ZM196.753 10.05C196.36 10.05 196.017 9.98667 195.723 9.86C195.437 9.72667 195.217 9.54667 195.063 9.32C194.91 9.08667 194.833 8.82 194.833 8.52C194.833 8.24667 194.897 8 195.023 7.78C195.157 7.55333 195.37 7.37333 195.663 7.24C195.963 7.1 196.363 7.03 196.863 7.03H198.673V7.56H196.883C196.377 7.56 196.023 7.65 195.823 7.83C195.63 8.01 195.533 8.23333 195.533 8.5C195.533 8.8 195.65 9.04 195.883 9.22C196.117 9.4 196.443 9.49 196.863 9.49C197.263 9.49 197.607 9.4 197.893 9.22C198.187 9.03333 198.4 8.76667 198.533 8.42L198.693 8.91C198.56 9.25667 198.327 9.53333 197.993 9.74C197.667 9.94667 197.253 10.05 196.753 10.05ZM207.732 4.7C208.158 4.7 208.528 4.78333 208.842 4.95C209.162 5.11 209.408 5.35667 209.582 5.69C209.762 6.02333 209.852 6.44333 209.852 6.95V10H209.142V7.02C209.142 6.46667 209.008 6.05 208.742 5.77C208.482 5.48333 208.112 5.34 207.632 5.34C207.272 5.34 206.958 5.41667 206.692 5.57C206.432 5.71667 206.228 5.93333 206.082 6.22C205.942 6.5 205.872 6.84 205.872 7.24V10H205.162V7.02C205.162 6.46667 205.028 6.05 204.762 5.77C204.495 5.48333 204.122 5.34 203.642 5.34C203.288 5.34 202.978 5.41667 202.712 5.57C202.445 5.71667 202.238 5.93333 202.092 6.22C201.952 6.5 201.882 6.84 201.882 7.24V10H201.172V4.75H201.852V6.17L201.742 5.92C201.902 5.54 202.158 5.24333 202.512 5.03C202.872 4.81 203.295 4.7 203.782 4.7C204.295 4.7 204.732 4.83 205.092 5.09C205.452 5.34333 205.685 5.72667 205.792 6.24L205.512 6.13C205.665 5.70333 205.935 5.36 206.322 5.1C206.715 4.83333 207.185 4.7 207.732 4.7ZM214.544 10V3H217.164C217.758 3 218.268 3.09667 218.694 3.29C219.121 3.47667 219.448 3.75 219.674 4.11C219.908 4.46333 220.024 4.89333 220.024 5.4C220.024 5.89333 219.908 6.32 219.674 6.68C219.448 7.03333 219.121 7.30667 218.694 7.5C218.268 7.69333 217.758 7.79 217.164 7.79H214.954L215.284 7.44V10H214.544ZM215.284 7.5L214.954 7.14H217.144C217.844 7.14 218.374 6.99 218.734 6.69C219.101 6.38333 219.284 5.95333 219.284 5.4C219.284 4.84 219.101 4.40667 218.734 4.1C218.374 3.79333 217.844 3.64 217.144 3.64H214.954L215.284 3.29V7.5ZM221.572 10V4.75H222.282V10H221.572ZM221.932 3.59C221.785 3.59 221.662 3.54 221.562 3.44C221.462 3.34 221.412 3.22 221.412 3.08C221.412 2.94 221.462 2.82333 221.562 2.73C221.662 2.63 221.785 2.58 221.932 2.58C222.079 2.58 222.202 2.62667 222.302 2.72C222.402 2.81333 222.452 2.93 222.452 3.07C222.452 3.21667 222.402 3.34 222.302 3.44C222.209 3.54 222.085 3.59 221.932 3.59ZM224.258 10V4.75H224.938V6.18L224.868 5.93C225.014 5.53 225.261 5.22667 225.608 5.02C225.954 4.80667 226.384 4.7 226.898 4.7V5.39C226.871 5.39 226.844 5.39 226.818 5.39C226.791 5.38333 226.764 5.38 226.738 5.38C226.184 5.38 225.751 5.55 225.438 5.89C225.124 6.22333 224.968 6.7 224.968 7.32V10H224.258ZM228.193 10V4.75H228.903V10H228.193ZM228.553 3.59C228.406 3.59 228.283 3.54 228.183 3.44C228.083 3.34 228.033 3.22 228.033 3.08C228.033 2.94 228.083 2.82333 228.183 2.73C228.283 2.63 228.406 2.58 228.553 2.58C228.7 2.58 228.823 2.62667 228.923 2.72C229.023 2.81333 229.073 2.93 229.073 3.07C229.073 3.21667 229.023 3.34 228.923 3.44C228.83 3.54 228.706 3.59 228.553 3.59ZM232.229 10L229.899 4.75H230.639L232.779 9.62H232.429L234.599 4.75H235.299L232.959 10H232.229ZM238.469 10.05C238.022 10.05 237.632 9.96667 237.299 9.8C236.965 9.63333 236.705 9.38333 236.519 9.05C236.339 8.71667 236.249 8.3 236.249 7.8V4.75H236.959V7.72C236.959 8.28 237.095 8.70333 237.369 8.99C237.649 9.27 238.039 9.41 238.539 9.41C238.905 9.41 239.222 9.33667 239.489 9.19C239.762 9.03667 239.969 8.81667 240.109 8.53C240.255 8.24333 240.329 7.9 240.329 7.5V4.75H241.039V10H240.359V8.56L240.469 8.82C240.302 9.20667 240.042 9.51 239.689 9.73C239.342 9.94333 238.935 10.05 238.469 10.05ZM242.587 11.46L243.027 9.61L243.107 10.04C242.954 10.04 242.824 9.99 242.717 9.89C242.617 9.79 242.567 9.66 242.567 9.5C242.567 9.34 242.617 9.21 242.717 9.11C242.824 9.01 242.951 8.96 243.097 8.96C243.251 8.96 243.374 9.01333 243.467 9.12C243.567 9.22667 243.617 9.35333 243.617 9.5C243.617 9.55333 243.614 9.60667 243.607 9.66C243.601 9.71333 243.587 9.77333 243.567 9.84C243.547 9.90667 243.521 9.98667 243.487 10.08L243.067 11.46H242.587ZM25.55 21.64L25.57 20.73L28.84 17.75H29.71L27.4 19.96L27 20.3L25.55 21.64ZM24.99 23V15.58H25.7V23H24.99ZM29.06 23L26.87 20.27L27.33 19.72L29.93 23H29.06ZM33.0682 23.05C32.6215 23.05 32.2315 22.9667 31.8982 22.8C31.5649 22.6333 31.3049 22.3833 31.1182 22.05C30.9382 21.7167 30.8482 21.3 30.8482 20.8V17.75H31.5582V20.72C31.5582 21.28 31.6949 21.7033 31.9682 21.99C32.2482 22.27 32.6382 22.41 33.1382 22.41C33.5049 22.41 33.8215 22.3367 34.0882 22.19C34.3615 22.0367 34.5682 21.8167 34.7082 21.53C34.8549 21.2433 34.9282 20.9 34.9282 20.5V17.75H35.6382V23H34.9582V21.56L35.0682 21.82C34.9015 22.2067 34.6415 22.51 34.2882 22.73C33.9415 22.9433 33.5349 23.05 33.0682 23.05ZM40.297 17.7C40.7236 17.7 41.097 17.7833 41.417 17.95C41.7436 18.11 41.997 18.3567 42.177 18.69C42.3636 19.0233 42.457 19.4433 42.457 19.95V23H41.747V20.02C41.747 19.4667 41.607 19.05 41.327 18.77C41.0536 18.4833 40.667 18.34 40.167 18.34C39.7936 18.34 39.467 18.4167 39.187 18.57C38.9136 18.7167 38.7003 18.9333 38.547 19.22C38.4003 19.5 38.327 19.84 38.327 20.24V23H37.617V17.75H38.297V19.19L38.187 18.92C38.3536 18.54 38.6203 18.2433 38.987 18.03C39.3536 17.81 39.7903 17.7 40.297 17.7ZM44.3748 23V17.75H45.0848V23H44.3748ZM44.7348 16.59C44.5881 16.59 44.4648 16.54 44.3648 16.44C44.2648 16.34 44.2148 16.22 44.2148 16.08C44.2148 15.94 44.2648 15.8233 44.3648 15.73C44.4648 15.63 44.5881 15.58 44.7348 15.58C44.8814 15.58 45.0048 15.6267 45.1048 15.72C45.2048 15.8133 45.2548 15.93 45.2548 16.07C45.2548 16.2167 45.2048 16.34 45.1048 16.44C45.0114 16.54 44.8881 16.59 44.7348 16.59ZM47.1003 24.99C46.8536 24.99 46.617 24.95 46.3903 24.87C46.1703 24.79 45.9803 24.67 45.8203 24.51L46.1503 23.98C46.2836 24.1067 46.427 24.2033 46.5803 24.27C46.7403 24.3433 46.917 24.38 47.1103 24.38C47.3436 24.38 47.5436 24.3133 47.7103 24.18C47.8836 24.0533 48.047 23.8267 48.2003 23.5L48.5403 22.73L48.6203 22.62L50.7803 17.75H51.4803L48.8503 23.63C48.7036 23.97 48.5403 24.24 48.3603 24.44C48.187 24.64 47.997 24.78 47.7903 24.86C47.5836 24.9467 47.3536 24.99 47.1003 24.99ZM48.5003 23.15L46.0803 17.75H46.8203L48.9603 22.57L48.5003 23.15ZM55.614 23V21.84L55.584 21.65V19.71C55.584 19.2633 55.4573 18.92 55.204 18.68C54.9573 18.44 54.5873 18.32 54.094 18.32C53.754 18.32 53.4307 18.3767 53.124 18.49C52.8173 18.6033 52.5573 18.7533 52.344 18.94L52.024 18.41C52.2907 18.1833 52.6107 18.01 52.984 17.89C53.3573 17.7633 53.7507 17.7 54.164 17.7C54.844 17.7 55.3673 17.87 55.734 18.21C56.1073 18.5433 56.294 19.0533 56.294 19.74V23H55.614ZM53.804 23.05C53.4107 23.05 53.0673 22.9867 52.774 22.86C52.4873 22.7267 52.2673 22.5467 52.114 22.32C51.9607 22.0867 51.884 21.82 51.884 21.52C51.884 21.2467 51.9473 21 52.074 20.78C52.2073 20.5533 52.4207 20.3733 52.714 20.24C53.014 20.1 53.414 20.03 53.914 20.03H55.724V20.56H53.934C53.4273 20.56 53.074 20.65 52.874 20.83C52.6807 21.01 52.584 21.2333 52.584 21.5C52.584 21.8 52.7007 22.04 52.934 22.22C53.1673 22.4 53.494 22.49 53.914 22.49C54.314 22.49 54.6573 22.4 54.944 22.22C55.2373 22.0333 55.4507 21.7667 55.584 21.42L55.744 21.91C55.6107 22.2567 55.3773 22.5333 55.044 22.74C54.7173 22.9467 54.304 23.05 53.804 23.05ZM64.7824 17.7C65.2091 17.7 65.5791 17.7833 65.8924 17.95C66.2124 18.11 66.4591 18.3567 66.6324 18.69C66.8124 19.0233 66.9024 19.4433 66.9024 19.95V23H66.1924V20.02C66.1924 19.4667 66.0591 19.05 65.7924 18.77C65.5324 18.4833 65.1624 18.34 64.6824 18.34C64.3224 18.34 64.0091 18.4167 63.7424 18.57C63.4824 18.7167 63.2791 18.9333 63.1324 19.22C62.9924 19.5 62.9224 19.84 62.9224 20.24V23H62.2124V20.02C62.2124 19.4667 62.0791 19.05 61.8124 18.77C61.5458 18.4833 61.1724 18.34 60.6924 18.34C60.3391 18.34 60.0291 18.4167 59.7624 18.57C59.4958 18.7167 59.2891 18.9333 59.1424 19.22C59.0024 19.5 58.9324 19.84 58.9324 20.24V23H58.2224V17.75H58.9024V19.17L58.7924 18.92C58.9524 18.54 59.2091 18.2433 59.5624 18.03C59.9224 17.81 60.3458 17.7 60.8324 17.7C61.3458 17.7 61.7824 17.83 62.1424 18.09C62.5024 18.3433 62.7358 18.7267 62.8424 19.24L62.5624 19.13C62.7158 18.7033 62.9858 18.36 63.3724 18.1C63.7658 17.8333 64.2358 17.7 64.7824 17.7ZM70.9979 23.05C70.5512 23.05 70.1612 22.9667 69.8279 22.8C69.4946 22.6333 69.2346 22.3833 69.0479 22.05C68.8679 21.7167 68.7779 21.3 68.7779 20.8V17.75H69.4879V20.72C69.4879 21.28 69.6246 21.7033 69.8979 21.99C70.1779 22.27 70.5679 22.41 71.0679 22.41C71.4346 22.41 71.7512 22.3367 72.0179 22.19C72.2912 22.0367 72.4979 21.8167 72.6379 21.53C72.7846 21.2433 72.8579 20.9 72.8579 20.5V17.75H73.5679V23H72.8879V21.56L72.9979 21.82C72.8312 22.2067 72.5712 22.51 72.2179 22.73C71.8712 22.9433 71.4646 23.05 70.9979 23.05ZM77.2066 23.05C76.7133 23.05 76.3333 22.9167 76.0666 22.65C75.8 22.3833 75.6666 22.0067 75.6666 21.52V16.59H76.3766V21.48C76.3766 21.7867 76.4533 22.0233 76.6066 22.19C76.7666 22.3567 76.9933 22.44 77.2866 22.44C77.6 22.44 77.86 22.35 78.0666 22.17L78.3166 22.68C78.1766 22.8067 78.0066 22.9 77.8066 22.96C77.6133 23.02 77.4133 23.05 77.2066 23.05ZM74.7266 18.34V17.75H77.9766V18.34H74.7266ZM82.2891 17.7C82.7158 17.7 83.0891 17.7833 83.4091 17.95C83.7358 18.11 83.9891 18.3567 84.1691 18.69C84.3558 19.0233 84.4491 19.4433 84.4491 19.95V23H83.7391V20.02C83.7391 19.4667 83.5991 19.05 83.3191 18.77C83.0458 18.4833 82.6591 18.34 82.1591 18.34C81.7858 18.34 81.4591 18.4167 81.1791 18.57C80.9058 18.7167 80.6925 18.9333 80.5391 19.22C80.3925 19.5 80.3191 19.84 80.3191 20.24V23H79.6091V15.58H80.3191V19.19L80.1791 18.92C80.3458 18.54 80.6125 18.2433 80.9791 18.03C81.3458 17.81 81.7825 17.7 82.2891 17.7ZM88.537 23.05C88.0903 23.05 87.7003 22.9667 87.367 22.8C87.0336 22.6333 86.7736 22.3833 86.587 22.05C86.407 21.7167 86.317 21.3 86.317 20.8V17.75H87.027V20.72C87.027 21.28 87.1636 21.7033 87.437 21.99C87.717 22.27 88.107 22.41 88.607 22.41C88.9736 22.41 89.2903 22.3367 89.557 22.19C89.8303 22.0367 90.037 21.8167 90.177 21.53C90.3236 21.2433 90.397 20.9 90.397 20.5V17.75H91.107V23H90.427V21.56L90.537 21.82C90.3703 22.2067 90.1103 22.51 89.757 22.73C89.4103 22.9433 89.0036 23.05 88.537 23.05ZM93.0857 23V17.75H93.7657V19.18L93.6957 18.93C93.8424 18.53 94.089 18.2267 94.4357 18.02C94.7824 17.8067 95.2124 17.7 95.7257 17.7V18.39C95.699 18.39 95.6724 18.39 95.6457 18.39C95.619 18.3833 95.5924 18.38 95.5657 18.38C95.0124 18.38 94.579 18.55 94.2657 18.89C93.9524 19.2233 93.7957 19.7 93.7957 20.32V23H93.0857ZM96.5717 24.46L97.0117 22.61L97.0917 23.04C96.9384 23.04 96.8084 22.99 96.7017 22.89C96.6017 22.79 96.5517 22.66 96.5517 22.5C96.5517 22.34 96.6017 22.21 96.7017 22.11C96.8084 22.01 96.9351 21.96 97.0817 21.96C97.2351 21.96 97.3584 22.0133 97.4517 22.12C97.5517 22.2267 97.6017 22.3533 97.6017 22.5C97.6017 22.5533 97.5984 22.6067 97.5917 22.66C97.5851 22.7133 97.5717 22.7733 97.5517 22.84C97.5317 22.9067 97.5051 22.9867 97.4717 23.08L97.0517 24.46H96.5717ZM101.154 23.05C100.634 23.05 100.168 22.9367 99.7544 22.71C99.3477 22.4767 99.0277 22.16 98.7944 21.76C98.561 21.3533 98.4444 20.89 98.4444 20.37C98.4444 19.8433 98.561 19.38 98.7944 18.98C99.0277 18.58 99.3477 18.2667 99.7544 18.04C100.168 17.8133 100.634 17.7 101.154 17.7C101.601 17.7 102.004 17.7867 102.364 17.96C102.724 18.1333 103.008 18.3933 103.214 18.74L102.684 19.1C102.504 18.8333 102.281 18.6367 102.014 18.51C101.748 18.3833 101.458 18.32 101.144 18.32C100.771 18.32 100.434 18.4067 100.134 18.58C99.8344 18.7467 99.5977 18.9833 99.4244 19.29C99.251 19.5967 99.1644 19.9567 99.1644 20.37C99.1644 20.7833 99.251 21.1433 99.4244 21.45C99.5977 21.7567 99.8344 21.9967 100.134 22.17C100.434 22.3367 100.771 22.42 101.144 22.42C101.458 22.42 101.748 22.3567 102.014 22.23C102.281 22.1033 102.504 21.91 102.684 21.65L103.214 22.01C103.008 22.35 102.724 22.61 102.364 22.79C102.004 22.9633 101.601 23.05 101.154 23.05ZM106.661 23.05C106.155 23.05 105.698 22.9367 105.291 22.71C104.891 22.4767 104.575 22.16 104.341 21.76C104.108 21.3533 103.991 20.89 103.991 20.37C103.991 19.8433 104.108 19.38 104.341 18.98C104.575 18.58 104.891 18.2667 105.291 18.04C105.691 17.8133 106.148 17.7 106.661 17.7C107.181 17.7 107.641 17.8133 108.041 18.04C108.448 18.2667 108.765 18.58 108.991 18.98C109.225 19.38 109.341 19.8433 109.341 20.37C109.341 20.89 109.225 21.3533 108.991 21.76C108.765 22.16 108.448 22.4767 108.041 22.71C107.635 22.9367 107.175 23.05 106.661 23.05ZM106.661 22.42C107.041 22.42 107.378 22.3367 107.671 22.17C107.965 21.9967 108.195 21.7567 108.361 21.45C108.535 21.1367 108.621 20.7767 108.621 20.37C108.621 19.9567 108.535 19.5967 108.361 19.29C108.195 18.9833 107.965 18.7467 107.671 18.58C107.378 18.4067 107.045 18.32 106.671 18.32C106.298 18.32 105.965 18.4067 105.671 18.58C105.378 18.7467 105.145 18.9833 104.971 19.29C104.798 19.5967 104.711 19.9567 104.711 20.37C104.711 20.7767 104.798 21.1367 104.971 21.45C105.145 21.7567 105.378 21.9967 105.671 22.17C105.965 22.3367 106.295 22.42 106.661 22.42ZM110.791 23V17.75H111.501V23H110.791ZM111.151 16.59C111.004 16.59 110.881 16.54 110.781 16.44C110.681 16.34 110.631 16.22 110.631 16.08C110.631 15.94 110.681 15.8233 110.781 15.73C110.881 15.63 111.004 15.58 111.151 15.58C111.297 15.58 111.421 15.6267 111.521 15.72C111.621 15.8133 111.671 15.93 111.671 16.07C111.671 16.2167 111.621 16.34 111.521 16.44C111.427 16.54 111.304 16.59 111.151 16.59ZM120.036 17.7C120.463 17.7 120.833 17.7833 121.146 17.95C121.466 18.11 121.713 18.3567 121.886 18.69C122.066 19.0233 122.156 19.4433 122.156 19.95V23H121.446V20.02C121.446 19.4667 121.313 19.05 121.046 18.77C120.786 18.4833 120.416 18.34 119.936 18.34C119.576 18.34 119.263 18.4167 118.996 18.57C118.736 18.7167 118.533 18.9333 118.386 19.22C118.246 19.5 118.176 19.84 118.176 20.24V23H117.466V20.02C117.466 19.4667 117.333 19.05 117.066 18.77C116.8 18.4833 116.426 18.34 115.946 18.34C115.593 18.34 115.283 18.4167 115.016 18.57C114.75 18.7167 114.543 18.9333 114.396 19.22C114.256 19.5 114.186 19.84 114.186 20.24V23H113.476V17.75H114.156V19.17L114.046 18.92C114.206 18.54 114.463 18.2433 114.816 18.03C115.176 17.81 115.6 17.7 116.086 17.7C116.6 17.7 117.036 17.83 117.396 18.09C117.756 18.3433 117.99 18.7267 118.096 19.24L117.816 19.13C117.97 18.7033 118.24 18.36 118.626 18.1C119.02 17.8333 119.49 17.7 120.036 17.7ZM126.792 23.05C126.332 23.05 125.918 22.9467 125.552 22.74C125.185 22.5267 124.895 22.22 124.682 21.82C124.468 21.42 124.362 20.9367 124.362 20.37C124.362 19.7967 124.468 19.3133 124.682 18.92C124.902 18.52 125.195 18.2167 125.562 18.01C125.928 17.8033 126.338 17.7 126.792 17.7C127.292 17.7 127.738 17.8133 128.132 18.04C128.532 18.26 128.845 18.57 129.072 18.97C129.298 19.37 129.412 19.8367 129.412 20.37C129.412 20.8967 129.298 21.3633 129.072 21.77C128.845 22.17 128.532 22.4833 128.132 22.71C127.738 22.9367 127.292 23.05 126.792 23.05ZM124.082 23V15.58H124.792V19.3L124.692 20.36L124.762 21.42V23H124.082ZM126.742 22.42C127.115 22.42 127.448 22.3367 127.742 22.17C128.035 21.9967 128.268 21.7567 128.442 21.45C128.615 21.1367 128.702 20.7767 128.702 20.37C128.702 19.9567 128.615 19.5967 128.442 19.29C128.268 18.9833 128.035 18.7467 127.742 18.58C127.448 18.4067 127.115 18.32 126.742 18.32C126.368 18.32 126.032 18.4067 125.732 18.58C125.438 18.7467 125.205 18.9833 125.032 19.29C124.865 19.5967 124.782 19.9567 124.782 20.37C124.782 20.7767 124.865 21.1367 125.032 21.45C125.205 21.7567 125.438 21.9967 125.732 22.17C126.032 22.3367 126.368 22.42 126.742 22.42ZM134.12 23V21.84L134.09 21.65V19.71C134.09 19.2633 133.963 18.92 133.71 18.68C133.463 18.44 133.093 18.32 132.6 18.32C132.26 18.32 131.937 18.3767 131.63 18.49C131.323 18.6033 131.063 18.7533 130.85 18.94L130.53 18.41C130.797 18.1833 131.117 18.01 131.49 17.89C131.863 17.7633 132.257 17.7 132.67 17.7C133.35 17.7 133.873 17.87 134.24 18.21C134.613 18.5433 134.8 19.0533 134.8 19.74V23H134.12ZM132.31 23.05C131.917 23.05 131.573 22.9867 131.28 22.86C130.993 22.7267 130.773 22.5467 130.62 22.32C130.467 22.0867 130.39 21.82 130.39 21.52C130.39 21.2467 130.453 21 130.58 20.78C130.713 20.5533 130.927 20.3733 131.22 20.24C131.52 20.1 131.92 20.03 132.42 20.03H134.23V20.56H132.44C131.933 20.56 131.58 20.65 131.38 20.83C131.187 21.01 131.09 21.2333 131.09 21.5C131.09 21.8 131.207 22.04 131.44 22.22C131.673 22.4 132 22.49 132.42 22.49C132.82 22.49 133.163 22.4 133.45 22.22C133.743 22.0333 133.957 21.7667 134.09 21.42L134.25 21.91C134.117 22.2567 133.883 22.5333 133.55 22.74C133.223 22.9467 132.81 23.05 132.31 23.05ZM138.388 23.05C137.895 23.05 137.515 22.9167 137.248 22.65C136.982 22.3833 136.848 22.0067 136.848 21.52V16.59H137.558V21.48C137.558 21.7867 137.635 22.0233 137.788 22.19C137.948 22.3567 138.175 22.44 138.468 22.44C138.782 22.44 139.042 22.35 139.248 22.17L139.498 22.68C139.358 22.8067 139.188 22.9 138.988 22.96C138.795 23.02 138.595 23.05 138.388 23.05ZM135.908 18.34V17.75H139.158V18.34H135.908ZM142.745 23.05C142.239 23.05 141.782 22.9367 141.375 22.71C140.975 22.4767 140.659 22.16 140.425 21.76C140.192 21.3533 140.075 20.89 140.075 20.37C140.075 19.8433 140.192 19.38 140.425 18.98C140.659 18.58 140.975 18.2667 141.375 18.04C141.775 17.8133 142.232 17.7 142.745 17.7C143.265 17.7 143.725 17.8133 144.125 18.04C144.532 18.2667 144.849 18.58 145.075 18.98C145.309 19.38 145.425 19.8433 145.425 20.37C145.425 20.89 145.309 21.3533 145.075 21.76C144.849 22.16 144.532 22.4767 144.125 22.71C143.719 22.9367 143.259 23.05 142.745 23.05ZM142.745 22.42C143.125 22.42 143.462 22.3367 143.755 22.17C144.049 21.9967 144.279 21.7567 144.445 21.45C144.619 21.1367 144.705 20.7767 144.705 20.37C144.705 19.9567 144.619 19.5967 144.445 19.29C144.279 18.9833 144.049 18.7467 143.755 18.58C143.462 18.4067 143.129 18.32 142.755 18.32C142.382 18.32 142.049 18.4067 141.755 18.58C141.462 18.7467 141.229 18.9833 141.055 19.29C140.882 19.5967 140.795 19.9567 140.795 20.37C140.795 20.7767 140.882 21.1367 141.055 21.45C141.229 21.7567 141.462 21.9967 141.755 22.17C142.049 22.3367 142.379 22.42 142.745 22.42ZM146.875 23V17.75H147.555V19.18L147.485 18.93C147.631 18.53 147.878 18.2267 148.225 18.02C148.571 17.8067 149.001 17.7 149.515 17.7V18.39C149.488 18.39 149.461 18.39 149.435 18.39C149.408 18.3833 149.381 18.38 149.355 18.38C148.801 18.38 148.368 18.55 148.055 18.89C147.741 19.2233 147.585 19.7 147.585 20.32V23H146.875ZM152.991 23.05C152.445 23.05 151.965 22.9367 151.551 22.71C151.138 22.4767 150.815 22.16 150.581 21.76C150.348 21.3533 150.231 20.89 150.231 20.37C150.231 19.85 150.341 19.39 150.561 18.99C150.788 18.59 151.095 18.2767 151.481 18.05C151.875 17.8167 152.315 17.7 152.801 17.7C153.295 17.7 153.731 17.8133 154.111 18.04C154.498 18.26 154.801 18.5733 155.021 18.98C155.241 19.38 155.351 19.8433 155.351 20.37C155.351 20.4033 155.348 20.44 155.341 20.48C155.341 20.5133 155.341 20.55 155.341 20.59H150.771V20.06H154.961L154.681 20.27C154.681 19.89 154.598 19.5533 154.431 19.26C154.271 18.96 154.051 18.7267 153.771 18.56C153.491 18.3933 153.168 18.31 152.801 18.31C152.441 18.31 152.118 18.3933 151.831 18.56C151.545 18.7267 151.321 18.96 151.161 19.26C151.001 19.56 150.921 19.9033 150.921 20.29V20.4C150.921 20.8 151.008 21.1533 151.181 21.46C151.361 21.76 151.608 21.9967 151.921 22.17C152.241 22.3367 152.605 22.42 153.011 22.42C153.331 22.42 153.628 22.3633 153.901 22.25C154.181 22.1367 154.421 21.9633 154.621 21.73L155.021 22.19C154.788 22.47 154.495 22.6833 154.141 22.83C153.795 22.9767 153.411 23.05 152.991 23.05ZM156.504 20.6V19.98H159.124V20.6H156.504ZM163.191 23.06C162.571 23.06 162.047 22.9233 161.621 22.65C161.194 22.37 160.871 21.97 160.651 21.45C160.431 20.9233 160.321 20.2933 160.321 19.56C160.321 18.7667 160.454 18.1033 160.721 17.57C160.994 17.03 161.371 16.6233 161.851 16.35C162.331 16.0767 162.887 15.94 163.521 15.94C163.834 15.94 164.134 15.97 164.421 16.03C164.707 16.09 164.961 16.1867 165.181 16.32L164.891 16.9C164.711 16.78 164.504 16.6967 164.271 16.65C164.037 16.5967 163.791 16.57 163.531 16.57C162.777 16.57 162.174 16.81 161.721 17.29C161.274 17.77 161.051 18.4867 161.051 19.44C161.051 19.5867 161.057 19.77 161.071 19.99C161.091 20.2033 161.131 20.4167 161.191 20.63L160.941 20.44C161.014 20.0933 161.157 19.8 161.371 19.56C161.584 19.3133 161.851 19.1267 162.171 19C162.491 18.8733 162.841 18.81 163.221 18.81C163.687 18.81 164.097 18.8967 164.451 19.07C164.804 19.2433 165.081 19.4867 165.281 19.8C165.481 20.1133 165.581 20.4833 165.581 20.91C165.581 21.3433 165.477 21.7233 165.271 22.05C165.064 22.37 164.777 22.62 164.411 22.8C164.051 22.9733 163.644 23.06 163.191 23.06ZM163.161 22.45C163.494 22.45 163.787 22.39 164.041 22.27C164.301 22.1433 164.504 21.9667 164.651 21.74C164.797 21.5067 164.871 21.2367 164.871 20.93C164.871 20.47 164.711 20.1033 164.391 19.83C164.077 19.5567 163.651 19.42 163.111 19.42C162.751 19.42 162.437 19.4867 162.171 19.62C161.904 19.7533 161.694 19.9367 161.541 20.17C161.387 20.3967 161.311 20.6567 161.311 20.95C161.311 21.2033 161.381 21.4467 161.521 21.68C161.661 21.9067 161.867 22.0933 162.141 22.24C162.421 22.38 162.761 22.45 163.161 22.45ZM166.295 21.16V20.64L170.005 16H170.805L167.125 20.64L166.735 20.52H172.365V21.16H166.295ZM170.245 23V21.16L170.265 20.52V18.9H170.965V23H170.245ZM173.992 23V16.3L174.312 16.64H172.342V16H174.712V23H173.992ZM179.175 23.06C178.635 23.06 178.155 22.92 177.735 22.64C177.315 22.3533 176.985 21.9467 176.745 21.42C176.505 20.8867 176.385 20.2467 176.385 19.5C176.385 18.7533 176.505 18.1167 176.745 17.59C176.985 17.0567 177.315 16.65 177.735 16.37C178.155 16.0833 178.635 15.94 179.175 15.94C179.715 15.94 180.195 16.0833 180.615 16.37C181.035 16.65 181.365 17.0567 181.605 17.59C181.852 18.1167 181.975 18.7533 181.975 19.5C181.975 20.2467 181.852 20.8867 181.605 21.42C181.365 21.9467 181.035 22.3533 180.615 22.64C180.195 22.92 179.715 23.06 179.175 23.06ZM179.175 22.4C179.589 22.4 179.949 22.29 180.255 22.07C180.562 21.8433 180.802 21.5167 180.975 21.09C181.149 20.6567 181.235 20.1267 181.235 19.5C181.235 18.8733 181.149 18.3467 180.975 17.92C180.802 17.4867 180.562 17.16 180.255 16.94C179.949 16.7133 179.589 16.6 179.175 16.6C178.775 16.6 178.419 16.7133 178.105 16.94C177.792 17.16 177.549 17.4867 177.375 17.92C177.202 18.3467 177.115 18.8733 177.115 19.5C177.115 20.1267 177.202 20.6567 177.375 21.09C177.549 21.5167 177.792 21.8433 178.105 22.07C178.419 22.29 178.775 22.4 179.175 22.4ZM185.796 23.06C185.256 23.06 184.776 22.92 184.356 22.64C183.936 22.3533 183.606 21.9467 183.366 21.42C183.126 20.8867 183.006 20.2467 183.006 19.5C183.006 18.7533 183.126 18.1167 183.366 17.59C183.606 17.0567 183.936 16.65 184.356 16.37C184.776 16.0833 185.256 15.94 185.796 15.94C186.336 15.94 186.816 16.0833 187.236 16.37C187.656 16.65 187.986 17.0567 188.226 17.59C188.473 18.1167 188.596 18.7533 188.596 19.5C188.596 20.2467 188.473 20.8867 188.226 21.42C187.986 21.9467 187.656 22.3533 187.236 22.64C186.816 22.92 186.336 23.06 185.796 23.06ZM185.796 22.4C186.21 22.4 186.57 22.29 186.876 22.07C187.183 21.8433 187.423 21.5167 187.596 21.09C187.77 20.6567 187.856 20.1267 187.856 19.5C187.856 18.8733 187.77 18.3467 187.596 17.92C187.423 17.4867 187.183 17.16 186.876 16.94C186.57 16.7133 186.21 16.6 185.796 16.6C185.396 16.6 185.04 16.7133 184.726 16.94C184.413 17.16 184.17 17.4867 183.996 17.92C183.823 18.3467 183.736 18.8733 183.736 19.5C183.736 20.1267 183.823 20.6567 183.996 21.09C184.17 21.5167 184.413 21.8433 184.726 22.07C185.04 22.29 185.396 22.4 185.796 22.4ZM192.287 23.06C191.727 23.06 191.244 22.98 190.837 22.82C190.437 22.66 190.127 22.43 189.907 22.13C189.694 21.8233 189.587 21.4633 189.587 21.05C189.587 20.65 189.691 20.31 189.897 20.03C190.111 19.7433 190.417 19.5233 190.817 19.37C191.224 19.2167 191.714 19.14 192.287 19.14C192.854 19.14 193.341 19.2167 193.747 19.37C194.154 19.5233 194.464 19.7433 194.677 20.03C194.897 20.31 195.007 20.65 195.007 21.05C195.007 21.4633 194.897 21.8233 194.677 22.13C194.457 22.43 194.144 22.66 193.737 22.82C193.331 22.98 192.847 23.06 192.287 23.06ZM192.287 22.45C192.907 22.45 193.391 22.3233 193.737 22.07C194.091 21.8167 194.267 21.4733 194.267 21.04C194.267 20.6067 194.091 20.2667 193.737 20.02C193.391 19.7667 192.907 19.64 192.287 19.64C191.667 19.64 191.184 19.7667 190.837 20.02C190.491 20.2667 190.317 20.6067 190.317 21.04C190.317 21.4733 190.491 21.8167 190.837 22.07C191.184 22.3233 191.667 22.45 192.287 22.45ZM192.287 19.55C191.767 19.55 191.324 19.48 190.957 19.34C190.597 19.2 190.321 19 190.127 18.74C189.934 18.4733 189.837 18.1567 189.837 17.79C189.837 17.4033 189.937 17.0733 190.137 16.8C190.344 16.52 190.631 16.3067 190.997 16.16C191.364 16.0133 191.794 15.94 192.287 15.94C192.781 15.94 193.211 16.0133 193.577 16.16C193.951 16.3067 194.241 16.52 194.447 16.8C194.654 17.0733 194.757 17.4033 194.757 17.79C194.757 18.1567 194.661 18.4733 194.467 18.74C194.274 19 193.991 19.2 193.617 19.34C193.251 19.48 192.807 19.55 192.287 19.55ZM192.287 19.07C192.834 19.07 193.261 18.9567 193.567 18.73C193.874 18.5033 194.027 18.2 194.027 17.82C194.027 17.42 193.867 17.11 193.547 16.89C193.234 16.6633 192.814 16.55 192.287 16.55C191.761 16.55 191.341 16.6633 191.027 16.89C190.714 17.11 190.557 17.4167 190.557 17.81C190.557 18.1967 190.707 18.5033 191.007 18.73C191.314 18.9567 191.741 19.07 192.287 19.07Z" fill="black"/>
</svg>
