<svg width="84" height="8" viewBox="0 0 84 8" fill="none" xmlns="http://www.w3.org/2000/svg">
<path d="M2.56 6.12V1.88H3.19V6.12H2.56ZM0.7 4.3V3.71H5.05V4.3H0.7ZM8.45195 0.44C9.07195 0.44 9.59529 0.58 10.022 0.86C10.4486 1.13333 10.772 1.53 10.992 2.05C11.212 2.57 11.322 3.2 11.322 3.94C11.322 4.72667 11.1853 5.39 10.912 5.93C10.6453 6.47 10.272 6.87667 9.79195 7.15C9.31195 7.42333 8.75529 7.56 8.12195 7.56C7.80862 7.56 7.50862 7.53 7.22195 7.47C6.94195 7.41 6.68862 7.31333 6.46195 7.18L6.75195 6.6C6.93195 6.72 7.13862 6.80667 7.37195 6.86C7.61195 6.90667 7.85862 6.93 8.11195 6.93C8.86529 6.93 9.46529 6.69 9.91195 6.21C10.3653 5.73 10.592 5.01333 10.592 4.06C10.592 3.90667 10.582 3.72333 10.562 3.51C10.5486 3.29667 10.512 3.08333 10.452 2.87L10.702 3.06C10.6353 3.40667 10.492 3.70333 10.272 3.95C10.0586 4.19 9.79195 4.37333 9.47195 4.5C9.15862 4.62667 8.80862 4.69 8.42195 4.69C7.96195 4.69 7.55195 4.60333 7.19195 4.43C6.83862 4.25667 6.56195 4.01333 6.36195 3.7C6.16195 3.38667 6.06195 3.01667 6.06195 2.59C6.06195 2.15 6.16529 1.77 6.37195 1.45C6.57862 1.13 6.86195 0.883333 7.22195 0.71C7.58862 0.53 7.99862 0.44 8.45195 0.44ZM8.48195 1.05C8.14862 1.05 7.85195 1.11333 7.59195 1.24C7.33862 1.36 7.13862 1.53333 6.99195 1.76C6.84529 1.98667 6.77195 2.25667 6.77195 2.57C6.77195 3.03 6.92862 3.39667 7.24195 3.67C7.56195 3.94333 7.99195 4.08 8.53195 4.08C8.89195 4.08 9.20529 4.01333 9.47195 3.88C9.74529 3.74667 9.95529 3.56333 10.102 3.33C10.2553 3.09667 10.332 2.83667 10.332 2.55C10.332 2.29 10.262 2.04667 10.122 1.82C9.98195 1.59333 9.77529 1.41 9.50195 1.27C9.22862 1.12333 8.88862 1.05 8.48195 1.05ZM13.5857 7.5V0.8L13.9057 1.14H11.9357V0.5H14.3057V7.5H13.5857ZM20.7762 0.44C21.3962 0.44 21.9195 0.58 22.3462 0.86C22.7728 1.13333 23.0962 1.53 23.3162 2.05C23.5362 2.57 23.6462 3.2 23.6462 3.94C23.6462 4.72667 23.5095 5.39 23.2362 5.93C22.9695 6.47 22.5962 6.87667 22.1162 7.15C21.6362 7.42333 21.0795 7.56 20.4462 7.56C20.1328 7.56 19.8328 7.53 19.5462 7.47C19.2662 7.41 19.0128 7.31333 18.7862 7.18L19.0762 6.6C19.2562 6.72 19.4628 6.80667 19.6962 6.86C19.9362 6.90667 20.1828 6.93 20.4362 6.93C21.1895 6.93 21.7895 6.69 22.2362 6.21C22.6895 5.73 22.9162 5.01333 22.9162 4.06C22.9162 3.90667 22.9062 3.72333 22.8862 3.51C22.8728 3.29667 22.8362 3.08333 22.7762 2.87L23.0262 3.06C22.9595 3.40667 22.8162 3.70333 22.5962 3.95C22.3828 4.19 22.1162 4.37333 21.7962 4.5C21.4828 4.62667 21.1328 4.69 20.7462 4.69C20.2862 4.69 19.8762 4.60333 19.5162 4.43C19.1628 4.25667 18.8862 4.01333 18.6862 3.7C18.4862 3.38667 18.3862 3.01667 18.3862 2.59C18.3862 2.15 18.4895 1.77 18.6962 1.45C18.9028 1.13 19.1862 0.883333 19.5462 0.71C19.9128 0.53 20.3228 0.44 20.7762 0.44ZM20.8062 1.05C20.4728 1.05 20.1762 1.11333 19.9162 1.24C19.6628 1.36 19.4628 1.53333 19.3162 1.76C19.1695 1.98667 19.0962 2.25667 19.0962 2.57C19.0962 3.03 19.2528 3.39667 19.5662 3.67C19.8862 3.94333 20.3162 4.08 20.8562 4.08C21.2162 4.08 21.5295 4.01333 21.7962 3.88C22.0695 3.74667 22.2795 3.56333 22.4262 3.33C22.5795 3.09667 22.6562 2.83667 22.6562 2.55C22.6562 2.29 22.5862 2.04667 22.4462 1.82C22.3062 1.59333 22.0995 1.41 21.8262 1.27C21.5528 1.12333 21.2128 1.05 20.8062 1.05ZM27.4799 7.56C26.9399 7.56 26.4599 7.42 26.0399 7.14C25.6199 6.85333 25.2899 6.44667 25.0499 5.92C24.8099 5.38667 24.6899 4.74667 24.6899 4C24.6899 3.25333 24.8099 2.61667 25.0499 2.09C25.2899 1.55667 25.6199 1.15 26.0399 0.87C26.4599 0.583333 26.9399 0.44 27.4799 0.44C28.0199 0.44 28.4999 0.583333 28.9199 0.87C29.3399 1.15 29.6699 1.55667 29.9099 2.09C30.1566 2.61667 30.2799 3.25333 30.2799 4C30.2799 4.74667 30.1566 5.38667 29.9099 5.92C29.6699 6.44667 29.3399 6.85333 28.9199 7.14C28.4999 7.42 28.0199 7.56 27.4799 7.56ZM27.4799 6.9C27.8933 6.9 28.2533 6.79 28.5599 6.57C28.8666 6.34333 29.1066 6.01667 29.2799 5.59C29.4533 5.15667 29.5399 4.62667 29.5399 4C29.5399 3.37333 29.4533 2.84667 29.2799 2.42C29.1066 1.98667 28.8666 1.66 28.5599 1.44C28.2533 1.21333 27.8933 1.1 27.4799 1.1C27.0799 1.1 26.7233 1.21333 26.4099 1.44C26.0966 1.66 25.8533 1.98667 25.6799 2.42C25.5066 2.84667 25.4199 3.37333 25.4199 4C25.4199 4.62667 25.5066 5.15667 25.6799 5.59C25.8533 6.01667 26.0966 6.34333 26.4099 6.57C26.7233 6.79 27.0799 6.9 27.4799 6.9ZM36.1082 0.44C36.7282 0.44 37.2515 0.58 37.6782 0.86C38.1049 1.13333 38.4282 1.53 38.6482 2.05C38.8682 2.57 38.9782 3.2 38.9782 3.94C38.9782 4.72667 38.8415 5.39 38.5682 5.93C38.3015 6.47 37.9282 6.87667 37.4482 7.15C36.9682 7.42333 36.4115 7.56 35.7782 7.56C35.4649 7.56 35.1649 7.53 34.8782 7.47C34.5982 7.41 34.3449 7.31333 34.1182 7.18L34.4082 6.6C34.5882 6.72 34.7949 6.80667 35.0282 6.86C35.2682 6.90667 35.5149 6.93 35.7682 6.93C36.5215 6.93 37.1215 6.69 37.5682 6.21C38.0215 5.73 38.2482 5.01333 38.2482 4.06C38.2482 3.90667 38.2382 3.72333 38.2182 3.51C38.2049 3.29667 38.1682 3.08333 38.1082 2.87L38.3582 3.06C38.2915 3.40667 38.1482 3.70333 37.9282 3.95C37.7149 4.19 37.4482 4.37333 37.1282 4.5C36.8149 4.62667 36.4649 4.69 36.0782 4.69C35.6182 4.69 35.2082 4.60333 34.8482 4.43C34.4949 4.25667 34.2182 4.01333 34.0182 3.7C33.8182 3.38667 33.7182 3.01667 33.7182 2.59C33.7182 2.15 33.8215 1.77 34.0282 1.45C34.2349 1.13 34.5182 0.883333 34.8782 0.71C35.2449 0.53 35.6549 0.44 36.1082 0.44ZM36.1382 1.05C35.8049 1.05 35.5082 1.11333 35.2482 1.24C34.9949 1.36 34.7949 1.53333 34.6482 1.76C34.5015 1.98667 34.4282 2.25667 34.4282 2.57C34.4282 3.03 34.5849 3.39667 34.8982 3.67C35.2182 3.94333 35.6482 4.08 36.1882 4.08C36.5482 4.08 36.8615 4.01333 37.1282 3.88C37.4015 3.74667 37.6115 3.56333 37.7582 3.33C37.9115 3.09667 37.9882 2.83667 37.9882 2.55C37.9882 2.29 37.9182 2.04667 37.7782 1.82C37.6382 1.59333 37.4315 1.41 37.1582 1.27C36.8849 1.12333 36.5449 1.05 36.1382 1.05ZM41.242 7.5V0.8L41.562 1.14H39.592V0.5H41.962V7.5H41.242ZM49.0424 7.56C48.5024 7.56 48.0224 7.42 47.6024 7.14C47.1824 6.85333 46.8524 6.44667 46.6124 5.92C46.3724 5.38667 46.2524 4.74667 46.2524 4C46.2524 3.25333 46.3724 2.61667 46.6124 2.09C46.8524 1.55667 47.1824 1.15 47.6024 0.87C48.0224 0.583333 48.5024 0.44 49.0424 0.44C49.5824 0.44 50.0624 0.583333 50.4824 0.87C50.9024 1.15 51.2324 1.55667 51.4724 2.09C51.7191 2.61667 51.8424 3.25333 51.8424 4C51.8424 4.74667 51.7191 5.38667 51.4724 5.92C51.2324 6.44667 50.9024 6.85333 50.4824 7.14C50.0624 7.42 49.5824 7.56 49.0424 7.56ZM49.0424 6.9C49.4558 6.9 49.8158 6.79 50.1224 6.57C50.4291 6.34333 50.6691 6.01667 50.8424 5.59C51.0158 5.15667 51.1024 4.62667 51.1024 4C51.1024 3.37333 51.0158 2.84667 50.8424 2.42C50.6691 1.98667 50.4291 1.66 50.1224 1.44C49.8158 1.21333 49.4558 1.1 49.0424 1.1C48.6424 1.1 48.2858 1.21333 47.9724 1.44C47.6591 1.66 47.4158 1.98667 47.2424 2.42C47.0691 2.84667 46.9824 3.37333 46.9824 4C46.9824 4.62667 47.0691 5.15667 47.2424 5.59C47.4158 6.01667 47.6591 6.34333 47.9724 6.57C48.2858 6.79 48.6424 6.9 49.0424 6.9ZM52.7435 7.5V6.99L55.6535 4.14C55.9202 3.88 56.1202 3.65333 56.2535 3.46C56.3868 3.26 56.4768 3.07333 56.5235 2.9C56.5702 2.72667 56.5935 2.56333 56.5935 2.41C56.5935 2.00333 56.4535 1.68333 56.1735 1.45C55.9002 1.21667 55.4935 1.1 54.9535 1.1C54.5402 1.1 54.1735 1.16333 53.8535 1.29C53.5402 1.41667 53.2702 1.61333 53.0435 1.88L52.5335 1.44C52.8068 1.12 53.1568 0.873333 53.5835 0.7C54.0102 0.526666 54.4868 0.44 55.0135 0.44C55.4868 0.44 55.8968 0.516666 56.2435 0.67C56.5902 0.816666 56.8568 1.03333 57.0435 1.32C57.2368 1.60667 57.3335 1.94333 57.3335 2.33C57.3335 2.55667 57.3002 2.78 57.2335 3C57.1735 3.22 57.0602 3.45333 56.8935 3.7C56.7335 3.94 56.4968 4.21333 56.1835 4.52L53.5135 7.14L53.3135 6.86H57.6535V7.5H52.7435ZM58.4271 7.5V6.99L61.3371 4.14C61.6038 3.88 61.8038 3.65333 61.9371 3.46C62.0704 3.26 62.1604 3.07333 62.2071 2.9C62.2538 2.72667 62.2771 2.56333 62.2771 2.41C62.2771 2.00333 62.1371 1.68333 61.8571 1.45C61.5838 1.21667 61.1771 1.1 60.6371 1.1C60.2238 1.1 59.8571 1.16333 59.5371 1.29C59.2238 1.41667 58.9538 1.61333 58.7271 1.88L58.2171 1.44C58.4904 1.12 58.8404 0.873333 59.2671 0.7C59.6938 0.526666 60.1704 0.44 60.6971 0.44C61.1704 0.44 61.5804 0.516666 61.9271 0.67C62.2738 0.816666 62.5404 1.03333 62.7271 1.32C62.9204 1.60667 63.0171 1.94333 63.0171 2.33C63.0171 2.55667 62.9838 2.78 62.9171 3C62.8571 3.22 62.7438 3.45333 62.5771 3.7C62.4171 3.94 62.1804 4.21333 61.8671 4.52L59.1971 7.14L58.9971 6.86H63.3371V7.5H58.4271ZM69.6479 7.56C69.1079 7.56 68.6279 7.42 68.2079 7.14C67.7879 6.85333 67.4579 6.44667 67.2179 5.92C66.9779 5.38667 66.8579 4.74667 66.8579 4C66.8579 3.25333 66.9779 2.61667 67.2179 2.09C67.4579 1.55667 67.7879 1.15 68.2079 0.87C68.6279 0.583333 69.1079 0.44 69.6479 0.44C70.1879 0.44 70.6679 0.583333 71.0879 0.87C71.5079 1.15 71.8379 1.55667 72.0779 2.09C72.3246 2.61667 72.4479 3.25333 72.4479 4C72.4479 4.74667 72.3246 5.38667 72.0779 5.92C71.8379 6.44667 71.5079 6.85333 71.0879 7.14C70.6679 7.42 70.1879 7.56 69.6479 7.56ZM69.6479 6.9C70.0612 6.9 70.4212 6.79 70.7279 6.57C71.0346 6.34333 71.2746 6.01667 71.4479 5.59C71.6212 5.15667 71.7079 4.62667 71.7079 4C71.7079 3.37333 71.6212 2.84667 71.4479 2.42C71.2746 1.98667 71.0346 1.66 70.7279 1.44C70.4212 1.21333 70.0612 1.1 69.6479 1.1C69.2479 1.1 68.8912 1.21333 68.5779 1.44C68.2646 1.66 68.0212 1.98667 67.8479 2.42C67.6746 2.84667 67.5879 3.37333 67.5879 4C67.5879 4.62667 67.6746 5.15667 67.8479 5.59C68.0212 6.01667 68.2646 6.34333 68.5779 6.57C68.8912 6.79 69.2479 6.9 69.6479 6.9ZM73.349 7.5V6.99L76.259 4.14C76.5257 3.88 76.7257 3.65333 76.859 3.46C76.9923 3.26 77.0823 3.07333 77.129 2.9C77.1757 2.72667 77.199 2.56333 77.199 2.41C77.199 2.00333 77.059 1.68333 76.779 1.45C76.5057 1.21667 76.099 1.1 75.559 1.1C75.1457 1.1 74.779 1.16333 74.459 1.29C74.1457 1.41667 73.8757 1.61333 73.649 1.88L73.139 1.44C73.4123 1.12 73.7623 0.873333 74.189 0.7C74.6157 0.526666 75.0923 0.44 75.619 0.44C76.0923 0.44 76.5023 0.516666 76.849 0.67C77.1957 0.816666 77.4623 1.03333 77.649 1.32C77.8423 1.60667 77.939 1.94333 77.939 2.33C77.939 2.55667 77.9057 2.78 77.839 3C77.779 3.22 77.6657 3.45333 77.499 3.7C77.339 3.94 77.1023 4.21333 76.789 4.52L74.119 7.14L73.919 6.86H78.259V7.5H73.349ZM79.0326 7.5V6.99L81.9426 4.14C82.2092 3.88 82.4092 3.65333 82.5426 3.46C82.6759 3.26 82.7659 3.07333 82.8126 2.9C82.8592 2.72667 82.8826 2.56333 82.8826 2.41C82.8826 2.00333 82.7426 1.68333 82.4626 1.45C82.1892 1.21667 81.7826 1.1 81.2426 1.1C80.8292 1.1 80.4626 1.16333 80.1426 1.29C79.8292 1.41667 79.5592 1.61333 79.3326 1.88L78.8226 1.44C79.0959 1.12 79.4459 0.873333 79.8726 0.7C80.2992 0.526666 80.7759 0.44 81.3026 0.44C81.7759 0.44 82.1859 0.516666 82.5326 0.67C82.8792 0.816666 83.1459 1.03333 83.3326 1.32C83.5259 1.60667 83.6226 1.94333 83.6226 2.33C83.6226 2.55667 83.5892 2.78 83.5226 3C83.4626 3.22 83.3492 3.45333 83.1826 3.7C83.0226 3.94 82.7859 4.21333 82.4726 4.52L79.8026 7.14L79.6026 6.86H83.9426V7.5H79.0326Z" fill="black"/>
</svg>
