<svg width="140" height="16" viewBox="0 0 140 16" fill="none" xmlns="http://www.w3.org/2000/svg">
<path d="M2.66634 13.3337C2.29967 13.3337 1.9859 13.2032 1.72501 12.9423C1.46412 12.6814 1.33345 12.3674 1.33301 12.0003V4.00033C1.33301 3.63366 1.46367 3.31988 1.72501 3.05899C1.98634 2.7981 2.30012 2.66744 2.66634 2.66699H13.333C13.6997 2.66699 14.0137 2.79766 14.275 3.05899C14.5363 3.32033 14.6668 3.6341 14.6663 4.00033V12.0003C14.6663 12.367 14.5359 12.681 14.275 12.9423C14.0141 13.2037 13.7001 13.3341 13.333 13.3337H2.66634ZM7.99967 8.66699L13.333 5.33366V4.00033L7.99967 7.33366L2.66634 4.00033V5.33366L7.99967 8.66699Z" fill="#FDC335"/>
<path d="M20.912 12V6.4H21.504V12H20.912ZM25.3501 7.76C25.6914 7.76 25.9901 7.82667 26.2461 7.96C26.5074 8.088 26.7101 8.28533 26.8541 8.552C27.0034 8.81867 27.0781 9.15467 27.0781 9.56V12H26.5101V9.616C26.5101 9.17333 26.3981 8.84 26.1741 8.616C25.9554 8.38667 25.6461 8.272 25.2461 8.272C24.9474 8.272 24.6861 8.33333 24.4621 8.456C24.2434 8.57333 24.0727 8.74667 23.9501 8.976C23.8327 9.2 23.7741 9.472 23.7741 9.792V12H23.2061V7.8H23.7501V8.952L23.6621 8.736C23.7954 8.432 24.0087 8.19467 24.3021 8.024C24.5954 7.848 24.9447 7.76 25.3501 7.76ZM28.7083 12V7.272C28.7083 6.89867 28.8176 6.59733 29.0363 6.368C29.255 6.13867 29.5696 6.024 29.9803 6.024C30.1403 6.024 30.295 6.04533 30.4443 6.088C30.5936 6.13067 30.719 6.19733 30.8203 6.288L30.6283 6.712C30.5483 6.64267 30.455 6.592 30.3483 6.56C30.2416 6.52267 30.127 6.504 30.0043 6.504C29.7643 6.504 29.5803 6.57067 29.4523 6.704C29.3243 6.83733 29.2603 7.03467 29.2603 7.296V7.936L29.2763 8.2V12H28.7083ZM27.9563 8.272V7.8H30.5563V8.272H27.9563ZM32.9649 12.04C32.5596 12.04 32.1943 11.9493 31.8689 11.768C31.5489 11.5813 31.2956 11.328 31.1089 11.008C30.9223 10.6827 30.8289 10.312 30.8289 9.896C30.8289 9.47467 30.9223 9.104 31.1089 8.784C31.2956 8.464 31.5489 8.21333 31.8689 8.032C32.1889 7.85067 32.5543 7.76 32.9649 7.76C33.3809 7.76 33.7489 7.85067 34.0689 8.032C34.3943 8.21333 34.6476 8.464 34.8289 8.784C35.0156 9.104 35.1089 9.47467 35.1089 9.896C35.1089 10.312 35.0156 10.6827 34.8289 11.008C34.6476 11.328 34.3943 11.5813 34.0689 11.768C33.7436 11.9493 33.3756 12.04 32.9649 12.04ZM32.9649 11.536C33.2689 11.536 33.5383 11.4693 33.7729 11.336C34.0076 11.1973 34.1916 11.0053 34.3249 10.76C34.4636 10.5093 34.5329 10.2213 34.5329 9.896C34.5329 9.56533 34.4636 9.27733 34.3249 9.032C34.1916 8.78667 34.0076 8.59733 33.7729 8.464C33.5383 8.32533 33.2716 8.256 32.9729 8.256C32.6743 8.256 32.4076 8.32533 32.1729 8.464C31.9383 8.59733 31.7516 8.78667 31.6129 9.032C31.4743 9.27733 31.4049 9.56533 31.4049 9.896C31.4049 10.2213 31.4743 10.5093 31.6129 10.76C31.7516 11.0053 31.9383 11.1973 32.1729 11.336C32.4076 11.4693 32.6716 11.536 32.9649 11.536ZM39.5966 13.6C39.0472 13.6 38.5459 13.5093 38.0926 13.328C37.6392 13.152 37.2472 12.9013 36.9166 12.576C36.5912 12.256 36.3379 11.8747 36.1566 11.432C35.9806 10.984 35.8926 10.496 35.8926 9.968C35.8926 9.43467 35.9806 8.94933 36.1566 8.512C36.3379 8.06933 36.5939 7.688 36.9246 7.368C37.2606 7.04267 37.6579 6.792 38.1166 6.616C38.5752 6.44 39.0792 6.352 39.6286 6.352C40.1726 6.352 40.6686 6.43733 41.1166 6.608C41.5699 6.77867 41.9619 7.02133 42.2926 7.336C42.6232 7.64533 42.8766 8.016 43.0526 8.448C43.2339 8.88 43.3246 9.35733 43.3246 9.88C43.3246 10.328 43.2712 10.7147 43.1646 11.04C43.0632 11.36 42.9139 11.608 42.7166 11.784C42.5192 11.9547 42.2819 12.04 42.0046 12.04C41.7326 12.04 41.5139 11.9573 41.3486 11.792C41.1832 11.6267 41.1006 11.3947 41.1006 11.096V10.464L41.1646 9.952L41.0846 9.152V7.944H41.6046V10.976C41.6046 11.2 41.6526 11.3573 41.7486 11.448C41.8446 11.5387 41.9619 11.584 42.1006 11.584C42.2659 11.584 42.4099 11.5173 42.5326 11.384C42.6552 11.2507 42.7486 11.0587 42.8126 10.808C42.8819 10.552 42.9166 10.2453 42.9166 9.888C42.9166 9.41867 42.8366 8.992 42.6766 8.608C42.5166 8.224 42.2899 7.89333 41.9966 7.616C41.7032 7.33867 41.3566 7.128 40.9566 6.984C40.5566 6.83467 40.1139 6.76 39.6286 6.76C39.1432 6.76 38.6979 6.83733 38.2926 6.992C37.8872 7.14667 37.5379 7.368 37.2446 7.656C36.9566 7.93867 36.7326 8.27733 36.5726 8.672C36.4126 9.06133 36.3326 9.49333 36.3326 9.968C36.3326 10.4427 36.4099 10.8773 36.5646 11.272C36.7246 11.6667 36.9486 12.0053 37.2366 12.288C37.5246 12.576 37.8686 12.7973 38.2686 12.952C38.6686 13.112 39.1112 13.192 39.5966 13.192C39.8366 13.192 40.0926 13.1627 40.3646 13.104C40.6419 13.0453 40.8979 12.9573 41.1326 12.84L41.2686 13.232C41.0286 13.3547 40.7566 13.4453 40.4526 13.504C40.1486 13.568 39.8632 13.6 39.5966 13.6ZM39.5006 12.04C39.1219 12.04 38.7832 11.952 38.4846 11.776C38.1859 11.5947 37.9486 11.3493 37.7726 11.04C37.6019 10.7253 37.5166 10.368 37.5166 9.968C37.5166 9.568 37.6019 9.21333 37.7726 8.904C37.9486 8.59467 38.1859 8.352 38.4846 8.176C38.7832 8 39.1219 7.912 39.5006 7.912C39.8686 7.912 40.1939 7.99467 40.4766 8.16C40.7646 8.32533 40.9886 8.56267 41.1486 8.872C41.3139 9.176 41.3966 9.54133 41.3966 9.968C41.3966 10.3947 41.3139 10.7627 41.1486 11.072C40.9886 11.3813 40.7672 11.6213 40.4846 11.792C40.2019 11.9573 39.8739 12.04 39.5006 12.04ZM39.5726 11.576C39.8606 11.576 40.1192 11.5093 40.3486 11.376C40.5832 11.2427 40.7646 11.056 40.8926 10.816C41.0259 10.5707 41.0926 10.288 41.0926 9.968C41.0926 9.64267 41.0259 9.36267 40.8926 9.128C40.7646 8.888 40.5832 8.704 40.3486 8.576C40.1192 8.44267 39.8606 8.376 39.5726 8.376C39.2739 8.376 39.0099 8.44267 38.7806 8.576C38.5512 8.704 38.3699 8.888 38.2366 9.128C38.1086 9.368 38.0446 9.648 38.0446 9.968C38.0446 10.288 38.1086 10.568 38.2366 10.808C38.3699 11.048 38.5512 11.2373 38.7806 11.376C39.0099 11.5093 39.2739 11.576 39.5726 11.576ZM45.9013 12.04C45.5066 12.04 45.2026 11.9333 44.9893 11.72C44.7759 11.5067 44.6693 11.2053 44.6693 10.816V6.872H45.2373V10.784C45.2373 11.0293 45.2986 11.2187 45.4213 11.352C45.5493 11.4853 45.7306 11.552 45.9653 11.552C46.2159 11.552 46.4239 11.48 46.5893 11.336L46.7893 11.744C46.6773 11.8453 46.5413 11.92 46.3813 11.968C46.2266 12.016 46.0666 12.04 45.9013 12.04ZM43.9173 8.272V7.8H46.5173V8.272H43.9173ZM49.4588 12.04C49.0215 12.04 48.6375 11.9493 48.3068 11.768C47.9761 11.5813 47.7175 11.328 47.5308 11.008C47.3441 10.6827 47.2508 10.312 47.2508 9.896C47.2508 9.48 47.3388 9.112 47.5148 8.792C47.6961 8.472 47.9415 8.22133 48.2508 8.04C48.5655 7.85333 48.9175 7.76 49.3068 7.76C49.7015 7.76 50.0508 7.85067 50.3548 8.032C50.6641 8.208 50.9068 8.45867 51.0828 8.784C51.2588 9.104 51.3468 9.47467 51.3468 9.896C51.3468 9.92267 51.3441 9.952 51.3388 9.984C51.3388 10.0107 51.3388 10.04 51.3388 10.072H47.6828V9.648H51.0348L50.8108 9.816C50.8108 9.512 50.7441 9.24267 50.6108 9.008C50.4828 8.768 50.3068 8.58133 50.0828 8.448C49.8588 8.31467 49.6001 8.248 49.3068 8.248C49.0188 8.248 48.7601 8.31467 48.5308 8.448C48.3015 8.58133 48.1228 8.768 47.9948 9.008C47.8668 9.248 47.8028 9.52267 47.8028 9.832V9.92C47.8028 10.24 47.8721 10.5227 48.0108 10.768C48.1548 11.008 48.3521 11.1973 48.6028 11.336C48.8588 11.4693 49.1495 11.536 49.4748 11.536C49.7308 11.536 49.9681 11.4907 50.1868 11.4C50.4108 11.3093 50.6028 11.1707 50.7628 10.984L51.0828 11.352C50.8961 11.576 50.6615 11.7467 50.3788 11.864C50.1015 11.9813 49.7948 12.04 49.4588 12.04ZM52.5029 12V7.8H53.0469V8.944L52.9909 8.744C53.1083 8.424 53.3056 8.18133 53.5829 8.016C53.8603 7.84533 54.2043 7.76 54.6149 7.76V8.312C54.5936 8.312 54.5723 8.312 54.5509 8.312C54.5296 8.30667 54.5083 8.304 54.4869 8.304C54.0443 8.304 53.6976 8.44 53.4469 8.712C53.1963 8.97867 53.0709 9.36 53.0709 9.856V12H52.5029ZM55.6514 12V7.8H56.1954V8.944L56.1394 8.744C56.2567 8.424 56.454 8.18133 56.7314 8.016C57.0087 7.84533 57.3527 7.76 57.7634 7.76V8.312C57.742 8.312 57.7207 8.312 57.6994 8.312C57.678 8.30667 57.6567 8.304 57.6354 8.304C57.1927 8.304 56.846 8.44 56.5954 8.712C56.3447 8.97867 56.2194 9.36 56.2194 9.856V12H55.6514ZM61.1193 12V11.072L61.0953 10.92V9.368C61.0953 9.01067 60.994 8.736 60.7913 8.544C60.594 8.352 60.298 8.256 59.9033 8.256C59.6313 8.256 59.3726 8.30133 59.1273 8.392C58.882 8.48267 58.674 8.60267 58.5033 8.752L58.2473 8.328C58.4606 8.14667 58.7166 8.008 59.0153 7.912C59.314 7.81067 59.6286 7.76 59.9593 7.76C60.5033 7.76 60.922 7.896 61.2153 8.168C61.514 8.43467 61.6633 8.84267 61.6633 9.392V12H61.1193ZM59.6713 12.04C59.3566 12.04 59.082 11.9893 58.8473 11.888C58.618 11.7813 58.442 11.6373 58.3193 11.456C58.1966 11.2693 58.1353 11.056 58.1353 10.816C58.1353 10.5973 58.186 10.4 58.2873 10.224C58.394 10.0427 58.5646 9.89867 58.7993 9.792C59.0393 9.68 59.3593 9.624 59.7593 9.624H61.2073V10.048H59.7753C59.37 10.048 59.0873 10.12 58.9273 10.264C58.7726 10.408 58.6953 10.5867 58.6953 10.8C58.6953 11.04 58.7886 11.232 58.9753 11.376C59.162 11.52 59.4233 11.592 59.7593 11.592C60.0793 11.592 60.354 11.52 60.5833 11.376C60.818 11.2267 60.9886 11.0133 61.0953 10.736L61.2233 11.128C61.1166 11.4053 60.93 11.6267 60.6633 11.792C60.402 11.9573 60.0713 12.04 59.6713 12.04ZM64.5341 12.04C64.1394 12.04 63.8354 11.9333 63.6221 11.72C63.4087 11.5067 63.3021 11.2053 63.3021 10.816V6.872H63.8701V10.784C63.8701 11.0293 63.9314 11.2187 64.0541 11.352C64.1821 11.4853 64.3634 11.552 64.5981 11.552C64.8487 11.552 65.0567 11.48 65.2221 11.336L65.4221 11.744C65.3101 11.8453 65.1741 11.92 65.0141 11.968C64.8594 12.016 64.6994 12.04 64.5341 12.04ZM62.5501 8.272V7.8H65.1501V8.272H62.5501ZM68.0916 12.04C67.6543 12.04 67.2703 11.9493 66.9396 11.768C66.609 11.5813 66.3503 11.328 66.1636 11.008C65.977 10.6827 65.8836 10.312 65.8836 9.896C65.8836 9.48 65.9716 9.112 66.1476 8.792C66.329 8.472 66.5743 8.22133 66.8836 8.04C67.1983 7.85333 67.5503 7.76 67.9396 7.76C68.3343 7.76 68.6836 7.85067 68.9876 8.032C69.297 8.208 69.5396 8.45867 69.7156 8.784C69.8916 9.104 69.9796 9.47467 69.9796 9.896C69.9796 9.92267 69.977 9.952 69.9716 9.984C69.9716 10.0107 69.9716 10.04 69.9716 10.072H66.3156V9.648H69.6676L69.4436 9.816C69.4436 9.512 69.377 9.24267 69.2436 9.008C69.1156 8.768 68.9396 8.58133 68.7156 8.448C68.4916 8.31467 68.233 8.248 67.9396 8.248C67.6516 8.248 67.393 8.31467 67.1636 8.448C66.9343 8.58133 66.7556 8.768 66.6276 9.008C66.4996 9.248 66.4356 9.52267 66.4356 9.832V9.92C66.4356 10.24 66.505 10.5227 66.6436 10.768C66.7876 11.008 66.985 11.1973 67.2356 11.336C67.4916 11.4693 67.7823 11.536 68.1076 11.536C68.3636 11.536 68.601 11.4907 68.8196 11.4C69.0436 11.3093 69.2356 11.1707 69.3956 10.984L69.7156 11.352C69.529 11.576 69.2943 11.7467 69.0116 11.864C68.7343 11.9813 68.4276 12.04 68.0916 12.04ZM72.8798 12.04C72.4638 12.04 72.0904 11.9493 71.7598 11.768C71.4344 11.5813 71.1784 11.328 70.9918 11.008C70.8051 10.6827 70.7118 10.312 70.7118 9.896C70.7118 9.47467 70.8051 9.104 70.9918 8.784C71.1784 8.464 71.4344 8.21333 71.7598 8.032C72.0904 7.85067 72.4638 7.76 72.8798 7.76C73.2371 7.76 73.5598 7.82933 73.8478 7.968C74.1358 8.10667 74.3624 8.31467 74.5278 8.592L74.1038 8.88C73.9598 8.66667 73.7811 8.50933 73.5678 8.408C73.3544 8.30667 73.1224 8.256 72.8718 8.256C72.5731 8.256 72.3038 8.32533 72.0638 8.464C71.8238 8.59733 71.6344 8.78667 71.4958 9.032C71.3571 9.27733 71.2878 9.56533 71.2878 9.896C71.2878 10.2267 71.3571 10.5147 71.4958 10.76C71.6344 11.0053 71.8238 11.1973 72.0638 11.336C72.3038 11.4693 72.5731 11.536 72.8718 11.536C73.1224 11.536 73.3544 11.4853 73.5678 11.384C73.7811 11.2827 73.9598 11.128 74.1038 10.92L74.5278 11.208C74.3624 11.48 74.1358 11.688 73.8478 11.832C73.5598 11.9707 73.2371 12.04 72.8798 12.04ZM77.7251 7.76C78.0664 7.76 78.3651 7.82667 78.6211 7.96C78.8824 8.088 79.0851 8.28533 79.2291 8.552C79.3784 8.81867 79.4531 9.15467 79.4531 9.56V12H78.8851V9.616C78.8851 9.17333 78.7731 8.84 78.5491 8.616C78.3304 8.38667 78.0211 8.272 77.6211 8.272C77.3224 8.272 77.0611 8.33333 76.8371 8.456C76.6184 8.57333 76.4477 8.74667 76.3251 8.976C76.2077 9.2 76.1491 9.472 76.1491 9.792V12H75.5811V6.064H76.1491V8.952L76.0371 8.736C76.1704 8.432 76.3837 8.19467 76.6771 8.024C76.9704 7.848 77.3197 7.76 77.7251 7.76ZM83.1553 12.04C82.7926 12.04 82.4646 11.9573 82.1713 11.792C81.878 11.6213 81.6433 11.3787 81.4673 11.064C81.2966 10.744 81.2113 10.3547 81.2113 9.896C81.2113 9.43733 81.2966 9.05067 81.4673 8.736C81.638 8.416 81.87 8.17333 82.1633 8.008C82.4566 7.84267 82.7873 7.76 83.1553 7.76C83.5553 7.76 83.9126 7.85067 84.2273 8.032C84.5473 8.208 84.798 8.45867 84.9793 8.784C85.1606 9.104 85.2513 9.47467 85.2513 9.896C85.2513 10.3227 85.1606 10.696 84.9793 11.016C84.798 11.336 84.5473 11.5867 84.2273 11.768C83.9126 11.9493 83.5553 12.04 83.1553 12.04ZM80.9873 13.552V7.8H81.5313V9.064L81.4753 9.904L81.5553 10.752V13.552H80.9873ZM83.1153 11.536C83.414 11.536 83.6806 11.4693 83.9153 11.336C84.15 11.1973 84.3366 11.0053 84.4753 10.76C84.614 10.5093 84.6833 10.2213 84.6833 9.896C84.6833 9.57067 84.614 9.28533 84.4753 9.04C84.3366 8.79467 84.15 8.60267 83.9153 8.464C83.6806 8.32533 83.414 8.256 83.1153 8.256C82.8166 8.256 82.5473 8.32533 82.3073 8.464C82.0726 8.60267 81.886 8.79467 81.7473 9.04C81.614 9.28533 81.5473 9.57067 81.5473 9.896C81.5473 10.2213 81.614 10.5093 81.7473 10.76C81.886 11.0053 82.0726 11.1973 82.3073 11.336C82.5473 11.4693 82.8166 11.536 83.1153 11.536ZM89.0178 12V11.072L88.9938 10.92V9.368C88.9938 9.01067 88.8924 8.736 88.6898 8.544C88.4924 8.352 88.1964 8.256 87.8018 8.256C87.5298 8.256 87.2711 8.30133 87.0258 8.392C86.7804 8.48267 86.5724 8.60267 86.4018 8.752L86.1458 8.328C86.3591 8.14667 86.6151 8.008 86.9138 7.912C87.2124 7.81067 87.5271 7.76 87.8578 7.76C88.4018 7.76 88.8204 7.896 89.1138 8.168C89.4124 8.43467 89.5618 8.84267 89.5618 9.392V12H89.0178ZM87.5698 12.04C87.2551 12.04 86.9804 11.9893 86.7458 11.888C86.5164 11.7813 86.3404 11.6373 86.2178 11.456C86.0951 11.2693 86.0338 11.056 86.0338 10.816C86.0338 10.5973 86.0844 10.4 86.1858 10.224C86.2924 10.0427 86.4631 9.89867 86.6978 9.792C86.9378 9.68 87.2578 9.624 87.6578 9.624H89.1058V10.048H87.6738C87.2684 10.048 86.9858 10.12 86.8258 10.264C86.6711 10.408 86.5938 10.5867 86.5938 10.8C86.5938 11.04 86.6871 11.232 86.8738 11.376C87.0604 11.52 87.3218 11.592 87.6578 11.592C87.9778 11.592 88.2524 11.52 88.4818 11.376C88.7164 11.2267 88.8871 11.0133 88.9938 10.736L89.1218 11.128C89.0151 11.4053 88.8284 11.6267 88.5618 11.792C88.3004 11.9573 87.9698 12.04 87.5698 12.04ZM92.8485 12.04C92.4325 12.04 92.0592 11.9493 91.7285 11.768C91.4032 11.5813 91.1472 11.328 90.9605 11.008C90.7738 10.6827 90.6805 10.312 90.6805 9.896C90.6805 9.47467 90.7738 9.104 90.9605 8.784C91.1472 8.464 91.4032 8.21333 91.7285 8.032C92.0592 7.85067 92.4325 7.76 92.8485 7.76C93.2058 7.76 93.5285 7.82933 93.8165 7.968C94.1045 8.10667 94.3312 8.31467 94.4965 8.592L94.0725 8.88C93.9285 8.66667 93.7498 8.50933 93.5365 8.408C93.3232 8.30667 93.0912 8.256 92.8405 8.256C92.5418 8.256 92.2725 8.32533 92.0325 8.464C91.7925 8.59733 91.6032 8.78667 91.4645 9.032C91.3258 9.27733 91.2565 9.56533 91.2565 9.896C91.2565 10.2267 91.3258 10.5147 91.4645 10.76C91.6032 11.0053 91.7925 11.1973 92.0325 11.336C92.2725 11.4693 92.5418 11.536 92.8405 11.536C93.0912 11.536 93.3232 11.4853 93.5365 11.384C93.7498 11.2827 93.9285 11.128 94.0725 10.92L94.4965 11.208C94.3312 11.48 94.1045 11.688 93.8165 11.832C93.5285 11.9707 93.2058 12.04 92.8485 12.04ZM95.9978 10.912L96.0138 10.184L98.6298 7.8H99.3258L97.4778 9.568L97.1578 9.84L95.9978 10.912ZM95.5498 12V6.064H96.1178V12H95.5498ZM98.8058 12L97.0538 9.816L97.4218 9.376L99.5018 12H98.8058ZM101.358 12.04C101.011 12.04 100.683 11.992 100.374 11.896C100.064 11.7947 99.8215 11.6693 99.6455 11.52L99.9015 11.072C100.072 11.2 100.291 11.312 100.558 11.408C100.824 11.4987 101.104 11.544 101.398 11.544C101.798 11.544 102.086 11.4827 102.262 11.36C102.438 11.232 102.526 11.064 102.526 10.856C102.526 10.7013 102.475 10.5813 102.374 10.496C102.278 10.4053 102.15 10.3387 101.99 10.296C101.83 10.248 101.651 10.208 101.454 10.176C101.256 10.144 101.059 10.1067 100.862 10.064C100.67 10.0213 100.494 9.96 100.334 9.88C100.174 9.79467 100.043 9.68 99.9415 9.536C99.8455 9.392 99.7975 9.2 99.7975 8.96C99.7975 8.73067 99.8615 8.52533 99.9895 8.344C100.118 8.16267 100.304 8.02133 100.55 7.92C100.8 7.81333 101.104 7.76 101.462 7.76C101.734 7.76 102.006 7.79733 102.278 7.872C102.55 7.94133 102.774 8.03467 102.95 8.152L102.702 8.608C102.515 8.48 102.315 8.38933 102.102 8.336C101.888 8.27733 101.675 8.248 101.462 8.248C101.083 8.248 100.803 8.31467 100.622 8.448C100.446 8.576 100.358 8.74133 100.358 8.944C100.358 9.104 100.406 9.22933 100.502 9.32C100.603 9.41067 100.734 9.48267 100.894 9.536C101.059 9.584 101.238 9.624 101.43 9.656C101.627 9.688 101.822 9.728 102.014 9.776C102.211 9.81867 102.39 9.88 102.55 9.96C102.715 10.0347 102.846 10.144 102.942 10.288C103.043 10.4267 103.094 10.6107 103.094 10.84C103.094 11.0853 103.024 11.2987 102.886 11.48C102.752 11.656 102.555 11.7947 102.294 11.896C102.038 11.992 101.726 12.04 101.358 12.04ZM104.192 12.04C104.074 12.04 103.973 11.9973 103.888 11.912C103.808 11.8267 103.768 11.7227 103.768 11.6C103.768 11.472 103.808 11.368 103.888 11.288C103.973 11.208 104.074 11.168 104.192 11.168C104.309 11.168 104.408 11.208 104.488 11.288C104.573 11.368 104.616 11.472 104.616 11.6C104.616 11.7227 104.573 11.8267 104.488 11.912C104.408 11.9973 104.309 12.04 104.192 12.04ZM107.458 12.04C107.042 12.04 106.669 11.9493 106.338 11.768C106.013 11.5813 105.757 11.328 105.57 11.008C105.383 10.6827 105.29 10.312 105.29 9.896C105.29 9.47467 105.383 9.104 105.57 8.784C105.757 8.464 106.013 8.21333 106.338 8.032C106.669 7.85067 107.042 7.76 107.458 7.76C107.815 7.76 108.138 7.82933 108.426 7.968C108.714 8.10667 108.941 8.31467 109.106 8.592L108.682 8.88C108.538 8.66667 108.359 8.50933 108.146 8.408C107.933 8.30667 107.701 8.256 107.45 8.256C107.151 8.256 106.882 8.32533 106.642 8.464C106.402 8.59733 106.213 8.78667 106.074 9.032C105.935 9.27733 105.866 9.56533 105.866 9.896C105.866 10.2267 105.935 10.5147 106.074 10.76C106.213 11.0053 106.402 11.1973 106.642 11.336C106.882 11.4693 107.151 11.536 107.45 11.536C107.701 11.536 107.933 11.4853 108.146 11.384C108.359 11.2827 108.538 11.128 108.682 10.92L109.106 11.208C108.941 11.48 108.714 11.688 108.426 11.832C108.138 11.9707 107.815 12.04 107.458 12.04ZM111.863 12.04C111.458 12.04 111.093 11.9493 110.767 11.768C110.447 11.5813 110.194 11.328 110.007 11.008C109.821 10.6827 109.727 10.312 109.727 9.896C109.727 9.47467 109.821 9.104 110.007 8.784C110.194 8.464 110.447 8.21333 110.767 8.032C111.087 7.85067 111.453 7.76 111.863 7.76C112.279 7.76 112.647 7.85067 112.967 8.032C113.293 8.21333 113.546 8.464 113.727 8.784C113.914 9.104 114.007 9.47467 114.007 9.896C114.007 10.312 113.914 10.6827 113.727 11.008C113.546 11.328 113.293 11.5813 112.967 11.768C112.642 11.9493 112.274 12.04 111.863 12.04ZM111.863 11.536C112.167 11.536 112.437 11.4693 112.671 11.336C112.906 11.1973 113.09 11.0053 113.223 10.76C113.362 10.5093 113.431 10.2213 113.431 9.896C113.431 9.56533 113.362 9.27733 113.223 9.032C113.09 8.78667 112.906 8.59733 112.671 8.464C112.437 8.32533 112.17 8.256 111.871 8.256C111.573 8.256 111.306 8.32533 111.071 8.464C110.837 8.59733 110.65 8.78667 110.511 9.032C110.373 9.27733 110.303 9.56533 110.303 9.896C110.303 10.2213 110.373 10.5093 110.511 10.76C110.65 11.0053 110.837 11.1973 111.071 11.336C111.306 11.4693 111.57 11.536 111.863 11.536ZM120.415 7.76C120.756 7.76 121.052 7.82667 121.303 7.96C121.559 8.088 121.756 8.28533 121.895 8.552C122.039 8.81867 122.111 9.15467 122.111 9.56V12H121.543V9.616C121.543 9.17333 121.436 8.84 121.223 8.616C121.015 8.38667 120.719 8.272 120.335 8.272C120.047 8.272 119.796 8.33333 119.583 8.456C119.375 8.57333 119.212 8.74667 119.095 8.976C118.983 9.2 118.927 9.472 118.927 9.792V12H118.359V9.616C118.359 9.17333 118.252 8.84 118.039 8.616C117.826 8.38667 117.527 8.272 117.143 8.272C116.86 8.272 116.612 8.33333 116.399 8.456C116.186 8.57333 116.02 8.74667 115.903 8.976C115.791 9.2 115.735 9.472 115.735 9.792V12H115.167V7.8H115.711V8.936L115.623 8.736C115.751 8.432 115.956 8.19467 116.239 8.024C116.527 7.848 116.866 7.76 117.255 7.76C117.666 7.76 118.015 7.864 118.303 8.072C118.591 8.27467 118.778 8.58133 118.863 8.992L118.639 8.904C118.762 8.56267 118.978 8.288 119.287 8.08C119.602 7.86667 119.978 7.76 120.415 7.76Z" fill="black"/>
<path d="M20 13H37.0453V13.4H20V13ZM41.6656 13H80.5844V13.4H41.6656V13ZM81.9547 13H122.863V13.4H81.9547V13Z" fill="black"/>
<a href="mailto:Info@terratechpacks.com">
<rect fill="black" fill-opacity="0" y="0.624" width="102.863" height="9.752"/>
</a>
</svg>
