<svg width="68" height="7" viewBox="0 0 68 7" fill="none" xmlns="http://www.w3.org/2000/svg">
<path d="M2.048 5.396V2.004H2.552V5.396H2.048ZM0.56 3.94V3.468H4.04V3.94H0.56ZM6.76156 0.852C7.25756 0.852 7.67623 0.964 8.01756 1.188C8.3589 1.40667 8.61756 1.724 8.79356 2.14C8.96956 2.556 9.05756 3.06 9.05756 3.652C9.05756 4.28133 8.94823 4.812 8.72956 5.244C8.51623 5.676 8.21756 6.00133 7.83356 6.22C7.44956 6.43867 7.00423 6.548 6.49756 6.548C6.2469 6.548 6.0069 6.524 5.77756 6.476C5.55356 6.428 5.3509 6.35067 5.16956 6.244L5.40156 5.78C5.54556 5.876 5.7109 5.94533 5.89756 5.988C6.08956 6.02533 6.2869 6.044 6.48956 6.044C7.09223 6.044 7.57223 5.852 7.92956 5.468C8.29223 5.084 8.47356 4.51067 8.47356 3.748C8.47356 3.62533 8.46556 3.47867 8.44956 3.308C8.4389 3.13733 8.40956 2.96667 8.36156 2.796L8.56156 2.948C8.50823 3.22533 8.39356 3.46267 8.21756 3.66C8.0469 3.852 7.83356 3.99867 7.57756 4.1C7.3269 4.20133 7.0469 4.252 6.73756 4.252C6.36956 4.252 6.04156 4.18267 5.75356 4.044C5.4709 3.90533 5.24956 3.71067 5.08956 3.46C4.92956 3.20933 4.84956 2.91333 4.84956 2.572C4.84956 2.22 4.93223 1.916 5.09756 1.66C5.2629 1.404 5.48956 1.20667 5.77756 1.068C6.0709 0.924 6.3989 0.852 6.76156 0.852ZM6.78556 1.34C6.5189 1.34 6.28156 1.39067 6.07356 1.492C5.8709 1.588 5.7109 1.72667 5.59356 1.908C5.47623 2.08933 5.41756 2.30533 5.41756 2.556C5.41756 2.924 5.5429 3.21733 5.79356 3.436C6.04956 3.65467 6.39356 3.764 6.82556 3.764C7.11356 3.764 7.36423 3.71067 7.57756 3.604C7.79623 3.49733 7.96423 3.35067 8.08156 3.164C8.20423 2.97733 8.26556 2.76933 8.26556 2.54C8.26556 2.332 8.20956 2.13733 8.09756 1.956C7.98556 1.77467 7.82023 1.628 7.60156 1.516C7.3829 1.39867 7.1109 1.34 6.78556 1.34ZM10.8686 6.5V1.14L11.1246 1.412H9.54856V0.9H11.4446V6.5H10.8686ZM16.6209 0.852C17.1169 0.852 17.5356 0.964 17.8769 1.188C18.2183 1.40667 18.4769 1.724 18.6529 2.14C18.8289 2.556 18.9169 3.06 18.9169 3.652C18.9169 4.28133 18.8076 4.812 18.5889 5.244C18.3756 5.676 18.0769 6.00133 17.6929 6.22C17.3089 6.43867 16.8636 6.548 16.3569 6.548C16.1063 6.548 15.8663 6.524 15.6369 6.476C15.4129 6.428 15.2103 6.35067 15.0289 6.244L15.2609 5.78C15.4049 5.876 15.5703 5.94533 15.7569 5.988C15.9489 6.02533 16.1463 6.044 16.3489 6.044C16.9516 6.044 17.4316 5.852 17.7889 5.468C18.1516 5.084 18.3329 4.51067 18.3329 3.748C18.3329 3.62533 18.3249 3.47867 18.3089 3.308C18.2983 3.13733 18.2689 2.96667 18.2209 2.796L18.4209 2.948C18.3676 3.22533 18.2529 3.46267 18.0769 3.66C17.9063 3.852 17.6929 3.99867 17.4369 4.1C17.1863 4.20133 16.9063 4.252 16.5969 4.252C16.2289 4.252 15.9009 4.18267 15.6129 4.044C15.3303 3.90533 15.1089 3.71067 14.9489 3.46C14.7889 3.20933 14.7089 2.91333 14.7089 2.572C14.7089 2.22 14.7916 1.916 14.9569 1.66C15.1223 1.404 15.3489 1.20667 15.6369 1.068C15.9303 0.924 16.2583 0.852 16.6209 0.852ZM16.6449 1.34C16.3783 1.34 16.1409 1.39067 15.9329 1.492C15.7303 1.588 15.5703 1.72667 15.4529 1.908C15.3356 2.08933 15.2769 2.30533 15.2769 2.556C15.2769 2.924 15.4023 3.21733 15.6529 3.436C15.9089 3.65467 16.2529 3.764 16.6849 3.764C16.9729 3.764 17.2236 3.71067 17.4369 3.604C17.6556 3.49733 17.8236 3.35067 17.9409 3.164C18.0636 2.97733 18.1249 2.76933 18.1249 2.54C18.1249 2.332 18.0689 2.13733 17.9569 1.956C17.8449 1.77467 17.6796 1.628 17.4609 1.516C17.2423 1.39867 16.9703 1.34 16.6449 1.34ZM21.9839 6.548C21.5519 6.548 21.1679 6.436 20.8319 6.212C20.4959 5.98267 20.2319 5.65733 20.0399 5.236C19.8479 4.80933 19.7519 4.29733 19.7519 3.7C19.7519 3.10267 19.8479 2.59333 20.0399 2.172C20.2319 1.74533 20.4959 1.42 20.8319 1.196C21.1679 0.966666 21.5519 0.852 21.9839 0.852C22.4159 0.852 22.7999 0.966666 23.1359 1.196C23.4719 1.42 23.7359 1.74533 23.9279 2.172C24.1253 2.59333 24.2239 3.10267 24.2239 3.7C24.2239 4.29733 24.1253 4.80933 23.9279 5.236C23.7359 5.65733 23.4719 5.98267 23.1359 6.212C22.7999 6.436 22.4159 6.548 21.9839 6.548ZM21.9839 6.02C22.3146 6.02 22.6026 5.932 22.8479 5.756C23.0933 5.57467 23.2853 5.31333 23.4239 4.972C23.5626 4.62533 23.6319 4.20133 23.6319 3.7C23.6319 3.19867 23.5626 2.77733 23.4239 2.436C23.2853 2.08933 23.0933 1.828 22.8479 1.652C22.6026 1.47067 22.3146 1.38 21.9839 1.38C21.6639 1.38 21.3786 1.47067 21.1279 1.652C20.8773 1.828 20.6826 2.08933 20.5439 2.436C20.4053 2.77733 20.3359 3.19867 20.3359 3.7C20.3359 4.20133 20.4053 4.62533 20.5439 4.972C20.6826 5.31333 20.8773 5.57467 21.1279 5.756C21.3786 5.932 21.6639 6.02 21.9839 6.02ZM28.8866 0.852C29.3826 0.852 29.8012 0.964 30.1426 1.188C30.4839 1.40667 30.7426 1.724 30.9186 2.14C31.0946 2.556 31.1826 3.06 31.1826 3.652C31.1826 4.28133 31.0732 4.812 30.8546 5.244C30.6412 5.676 30.3426 6.00133 29.9586 6.22C29.5746 6.43867 29.1292 6.548 28.6226 6.548C28.3719 6.548 28.1319 6.524 27.9026 6.476C27.6786 6.428 27.4759 6.35067 27.2946 6.244L27.5266 5.78C27.6706 5.876 27.8359 5.94533 28.0226 5.988C28.2146 6.02533 28.4119 6.044 28.6146 6.044C29.2172 6.044 29.6972 5.852 30.0546 5.468C30.4172 5.084 30.5986 4.51067 30.5986 3.748C30.5986 3.62533 30.5906 3.47867 30.5746 3.308C30.5639 3.13733 30.5346 2.96667 30.4866 2.796L30.6866 2.948C30.6332 3.22533 30.5186 3.46267 30.3426 3.66C30.1719 3.852 29.9586 3.99867 29.7026 4.1C29.4519 4.20133 29.1719 4.252 28.8626 4.252C28.4946 4.252 28.1666 4.18267 27.8786 4.044C27.5959 3.90533 27.3746 3.71067 27.2146 3.46C27.0546 3.20933 26.9746 2.91333 26.9746 2.572C26.9746 2.22 27.0572 1.916 27.2226 1.66C27.3879 1.404 27.6146 1.20667 27.9026 1.068C28.1959 0.924 28.5239 0.852 28.8866 0.852ZM28.9106 1.34C28.6439 1.34 28.4066 1.39067 28.1986 1.492C27.9959 1.588 27.8359 1.72667 27.7186 1.908C27.6012 2.08933 27.5426 2.30533 27.5426 2.556C27.5426 2.924 27.6679 3.21733 27.9186 3.436C28.1746 3.65467 28.5186 3.764 28.9506 3.764C29.2386 3.764 29.4892 3.71067 29.7026 3.604C29.9212 3.49733 30.0892 3.35067 30.2066 3.164C30.3292 2.97733 30.3906 2.76933 30.3906 2.54C30.3906 2.332 30.3346 2.13733 30.2226 1.956C30.1106 1.77467 29.9452 1.628 29.7266 1.516C29.5079 1.39867 29.2359 1.34 28.9106 1.34ZM32.9936 6.5V1.14L33.2496 1.412H31.6736V0.9H33.5696V6.5H32.9936ZM39.2339 6.548C38.8019 6.548 38.4179 6.436 38.0819 6.212C37.7459 5.98267 37.4819 5.65733 37.2899 5.236C37.0979 4.80933 37.0019 4.29733 37.0019 3.7C37.0019 3.10267 37.0979 2.59333 37.2899 2.172C37.4819 1.74533 37.7459 1.42 38.0819 1.196C38.4179 0.966666 38.8019 0.852 39.2339 0.852C39.6659 0.852 40.0499 0.966666 40.3859 1.196C40.7219 1.42 40.9859 1.74533 41.1779 2.172C41.3753 2.59333 41.4739 3.10267 41.4739 3.7C41.4739 4.29733 41.3753 4.80933 41.1779 5.236C40.9859 5.65733 40.7219 5.98267 40.3859 6.212C40.0499 6.436 39.6659 6.548 39.2339 6.548ZM39.2339 6.02C39.5646 6.02 39.8526 5.932 40.0979 5.756C40.3433 5.57467 40.5353 5.31333 40.6739 4.972C40.8126 4.62533 40.8819 4.20133 40.8819 3.7C40.8819 3.19867 40.8126 2.77733 40.6739 2.436C40.5353 2.08933 40.3433 1.828 40.0979 1.652C39.8526 1.47067 39.5646 1.38 39.2339 1.38C38.9139 1.38 38.6286 1.47067 38.3779 1.652C38.1273 1.828 37.9326 2.08933 37.7939 2.436C37.6553 2.77733 37.5859 3.19867 37.5859 3.7C37.5859 4.20133 37.6553 4.62533 37.7939 4.972C37.9326 5.31333 38.1273 5.57467 38.3779 5.756C38.6286 5.932 38.9139 6.02 39.2339 6.02ZM42.1948 6.5V6.092L44.5228 3.812C44.7361 3.604 44.8961 3.42267 45.0028 3.268C45.1095 3.108 45.1815 2.95867 45.2188 2.82C45.2561 2.68133 45.2748 2.55067 45.2748 2.428C45.2748 2.10267 45.1628 1.84667 44.9388 1.66C44.7201 1.47333 44.3948 1.38 43.9628 1.38C43.6321 1.38 43.3388 1.43067 43.0828 1.532C42.8321 1.63333 42.6161 1.79067 42.4348 2.004L42.0268 1.652C42.2455 1.396 42.5255 1.19867 42.8668 1.06C43.2081 0.921333 43.5895 0.852 44.0108 0.852C44.3895 0.852 44.7175 0.913333 44.9948 1.036C45.2721 1.15333 45.4855 1.32667 45.6348 1.556C45.7895 1.78533 45.8668 2.05467 45.8668 2.364C45.8668 2.54533 45.8401 2.724 45.7868 2.9C45.7388 3.076 45.6481 3.26267 45.5148 3.46C45.3868 3.652 45.1975 3.87067 44.9468 4.116L42.8108 6.212L42.6508 5.988H46.1228V6.5H42.1948ZM46.7417 6.5V6.092L49.0697 3.812C49.283 3.604 49.443 3.42267 49.5497 3.268C49.6564 3.108 49.7284 2.95867 49.7657 2.82C49.803 2.68133 49.8217 2.55067 49.8217 2.428C49.8217 2.10267 49.7097 1.84667 49.4857 1.66C49.267 1.47333 48.9417 1.38 48.5097 1.38C48.179 1.38 47.8857 1.43067 47.6297 1.532C47.379 1.63333 47.163 1.79067 46.9817 2.004L46.5737 1.652C46.7924 1.396 47.0724 1.19867 47.4137 1.06C47.755 0.921333 48.1364 0.852 48.5577 0.852C48.9364 0.852 49.2644 0.913333 49.5417 1.036C49.819 1.15333 50.0324 1.32667 50.1817 1.556C50.3364 1.78533 50.4137 2.05467 50.4137 2.364C50.4137 2.54533 50.387 2.724 50.3337 2.9C50.2857 3.076 50.195 3.26267 50.0617 3.46C49.9337 3.652 49.7444 3.87067 49.4937 4.116L47.3577 6.212L47.1977 5.988H50.6697V6.5H46.7417ZM55.7183 6.548C55.2863 6.548 54.9023 6.436 54.5663 6.212C54.2303 5.98267 53.9663 5.65733 53.7743 5.236C53.5823 4.80933 53.4863 4.29733 53.4863 3.7C53.4863 3.10267 53.5823 2.59333 53.7743 2.172C53.9663 1.74533 54.2303 1.42 54.5663 1.196C54.9023 0.966666 55.2863 0.852 55.7183 0.852C56.1503 0.852 56.5343 0.966666 56.8703 1.196C57.2063 1.42 57.4703 1.74533 57.6623 2.172C57.8596 2.59333 57.9583 3.10267 57.9583 3.7C57.9583 4.29733 57.8596 4.80933 57.6623 5.236C57.4703 5.65733 57.2063 5.98267 56.8703 6.212C56.5343 6.436 56.1503 6.548 55.7183 6.548ZM55.7183 6.02C56.049 6.02 56.337 5.932 56.5823 5.756C56.8276 5.57467 57.0196 5.31333 57.1583 4.972C57.297 4.62533 57.3663 4.20133 57.3663 3.7C57.3663 3.19867 57.297 2.77733 57.1583 2.436C57.0196 2.08933 56.8276 1.828 56.5823 1.652C56.337 1.47067 56.049 1.38 55.7183 1.38C55.3983 1.38 55.113 1.47067 54.8623 1.652C54.6116 1.828 54.417 2.08933 54.2783 2.436C54.1396 2.77733 54.0703 3.19867 54.0703 3.7C54.0703 4.20133 54.1396 4.62533 54.2783 4.972C54.417 5.31333 54.6116 5.57467 54.8623 5.756C55.113 5.932 55.3983 6.02 55.7183 6.02ZM58.6792 6.5V6.092L61.0072 3.812C61.2205 3.604 61.3805 3.42267 61.4872 3.268C61.5939 3.108 61.6659 2.95867 61.7032 2.82C61.7405 2.68133 61.7592 2.55067 61.7592 2.428C61.7592 2.10267 61.6472 1.84667 61.4232 1.66C61.2045 1.47333 60.8792 1.38 60.4472 1.38C60.1165 1.38 59.8232 1.43067 59.5672 1.532C59.3165 1.63333 59.1005 1.79067 58.9192 2.004L58.5112 1.652C58.7299 1.396 59.0099 1.19867 59.3512 1.06C59.6925 0.921333 60.0739 0.852 60.4952 0.852C60.8739 0.852 61.2019 0.913333 61.4792 1.036C61.7565 1.15333 61.9699 1.32667 62.1192 1.556C62.2739 1.78533 62.3512 2.05467 62.3512 2.364C62.3512 2.54533 62.3245 2.724 62.2712 2.9C62.2232 3.076 62.1325 3.26267 61.9992 3.46C61.8712 3.652 61.6819 3.87067 61.4312 4.116L59.2952 6.212L59.1352 5.988H62.6072V6.5H58.6792ZM63.2261 6.5V6.092L65.5541 3.812C65.7674 3.604 65.9274 3.42267 66.0341 3.268C66.1407 3.108 66.2127 2.95867 66.2501 2.82C66.2874 2.68133 66.3061 2.55067 66.3061 2.428C66.3061 2.10267 66.1941 1.84667 65.9701 1.66C65.7514 1.47333 65.4261 1.38 64.9941 1.38C64.6634 1.38 64.3701 1.43067 64.1141 1.532C63.8634 1.63333 63.6474 1.79067 63.4661 2.004L63.0581 1.652C63.2767 1.396 63.5567 1.19867 63.8981 1.06C64.2394 0.921333 64.6207 0.852 65.0421 0.852C65.4207 0.852 65.7487 0.913333 66.0261 1.036C66.3034 1.15333 66.5167 1.32667 66.6661 1.556C66.8207 1.78533 66.8981 2.05467 66.8981 2.364C66.8981 2.54533 66.8714 2.724 66.8181 2.9C66.7701 3.076 66.6794 3.26267 66.5461 3.46C66.4181 3.652 66.2287 3.87067 65.9781 4.116L63.8421 6.212L63.6821 5.988H67.1541V6.5H63.2261Z" fill="black"/>
</svg>
