<svg width="287" height="57" viewBox="0 0 287 57" fill="none" xmlns="http://www.w3.org/2000/svg">
<path d="M0.00113678 19.1221L3.68114 0.722069H11.5851C13.9531 0.722069 15.7878 1.23407 17.0891 2.25807C18.3905 3.28207 19.0411 4.72207 19.0411 6.57807C19.0411 8.11407 18.6571 9.45807 17.8891 10.6101C17.1425 11.7407 16.0758 12.6261 14.6891 13.2661C13.3238 13.8847 11.6918 14.1941 9.79314 14.1941H3.77714L6.46514 12.0501L5.05714 19.1221H0.00113678ZM11.8091 19.1221L7.93714 12.4341H13.1851L17.0891 19.1221H11.8091ZM6.33714 12.6261L4.57714 10.3541H10.0171C11.2545 10.3541 12.2145 10.0661 12.8971 9.49007C13.5798 8.89274 13.9211 8.08207 13.9211 7.05807C13.9211 6.2474 13.6438 5.65007 13.0891 5.26607C12.5345 4.86074 11.7665 4.65807 10.7851 4.65807H5.76114L8.38514 2.38607L6.33714 12.6261ZM27.3149 7.95407H36.2109L35.4749 11.6341H26.5789L27.3149 7.95407ZM26.3549 15.2501H36.2109L35.4429 19.1221H20.5949L24.2749 0.722069H38.7389L38.0029 4.59407H28.4989L26.3549 15.2501ZM36.3109 19.1221L48.3429 0.722069H53.3029L57.8469 19.1221H52.7909L51.9909 15.5061L51.3509 11.7941L49.4949 3.12207H51.2229L45.9749 11.7941L43.9269 15.5061L41.6869 19.1221H36.3109ZM41.4949 15.5061L43.5429 11.7941H52.7909L53.3669 15.5061H41.4949ZM60.0316 19.1221L63.7436 0.722069H71.8076C73.749 0.722069 75.413 1.04207 76.7996 1.68207C78.1863 2.30074 79.2423 3.18607 79.9676 4.33807C80.7143 5.49007 81.0876 6.8554 81.0876 8.43407C81.0876 10.6101 80.5863 12.4981 79.5836 14.0981C78.6023 15.6767 77.237 16.9141 75.4876 17.8101C73.7383 18.6847 71.7116 19.1221 69.4076 19.1221H60.0316ZM65.8876 15.1541H69.5996C70.9436 15.1541 72.0956 14.8767 73.0556 14.3221C74.0156 13.7461 74.741 12.9781 75.2316 12.0181C75.7436 11.0367 75.9996 9.94874 75.9996 8.75407C75.9996 7.47407 75.5836 6.48207 74.7516 5.77807C73.941 5.05274 72.757 4.69007 71.1996 4.69007H67.9996L65.8876 15.1541ZM86.3904 19.1221L87.9584 11.3781L88.4704 14.4501L82.9344 0.722069H88.0224L92.0544 10.7701H89.0144L97.1744 0.722069H102.326L91.2864 14.4501L93.0144 11.3781L91.4464 19.1221H86.3904Z" fill="url(#paint0_linear_475_45)"/>
<path d="M113.52 19.1221L116.432 4.65807H110.64L111.408 0.722069H128.048L127.28 4.65807H121.488L118.576 19.1221H113.52ZM136.289 19.4741C134.369 19.4741 132.727 19.1327 131.361 18.4501C129.996 17.7674 128.94 16.8181 128.193 15.6021C127.447 14.3861 127.073 12.9781 127.073 11.3781C127.073 9.7994 127.351 8.33807 127.905 6.99407C128.481 5.65007 129.281 4.4874 130.305 3.50607C131.351 2.5034 132.577 1.7354 133.985 1.20207C135.415 0.647403 136.972 0.37007 138.657 0.37007C140.577 0.37007 142.22 0.711403 143.585 1.39407C144.972 2.07674 146.039 3.02607 146.785 4.24207C147.532 5.45807 147.905 6.86607 147.905 8.46607C147.905 10.0447 147.617 11.5061 147.041 12.8501C146.487 14.1941 145.687 15.3674 144.641 16.3701C143.617 17.3514 142.391 18.1194 140.961 18.6741C139.553 19.2074 137.996 19.4741 136.289 19.4741ZM136.737 15.3461C137.676 15.3461 138.519 15.1754 139.265 14.8341C140.033 14.4714 140.673 13.9914 141.185 13.3941C141.719 12.7754 142.113 12.0714 142.369 11.2821C142.647 10.4714 142.785 9.62874 142.785 8.75407C142.785 7.47407 142.391 6.45007 141.601 5.68207C140.833 4.89274 139.713 4.49807 138.241 4.49807C137.303 4.49807 136.449 4.6794 135.681 5.04207C134.935 5.3834 134.305 5.8634 133.793 6.48207C133.281 7.10074 132.876 7.80474 132.577 8.59407C132.3 9.3834 132.161 10.2261 132.161 11.1221C132.161 12.3807 132.556 13.4047 133.345 14.1941C134.135 14.9621 135.265 15.3461 136.737 15.3461ZM165.346 7.95407H174.242L173.506 11.6341H164.61L165.346 7.95407ZM164.386 15.2501H174.242L173.474 19.1221H158.626L162.306 0.722069H176.77L176.034 4.59407H166.53L164.386 15.2501ZM177.126 19.1221L180.806 0.722069H185.862L182.95 15.1861H191.942L191.174 19.1221H177.126ZM200.627 7.95407H209.523L208.787 11.6341H199.891L200.627 7.95407ZM199.667 15.2501H209.523L208.755 19.1221H193.907L197.587 0.722069H212.051L211.315 4.59407H201.811L199.667 15.2501ZM217.658 19.1221L213.37 0.722069H218.586L222.17 16.7541H218.874L229.146 0.722069H234.394L222.65 19.1221H217.658ZM229.03 19.1221L241.062 0.722069H246.022L250.566 19.1221H245.51L244.71 15.5061L244.07 11.7941L242.214 3.12207H243.942L238.694 11.7941L236.646 15.5061L234.406 19.1221H229.03ZM234.214 15.5061L236.262 11.7941H245.51L246.086 15.5061H234.214ZM255.113 19.1221L258.025 4.65807H252.233L253.001 0.722069H269.641L268.873 4.65807H263.081L260.169 19.1221H255.113ZM275.284 7.95407H284.18L283.444 11.6341H274.548L275.284 7.95407ZM274.324 15.2501H284.18L283.412 19.1221H268.564L272.244 0.722069H286.708L285.972 4.59407H276.468L274.324 15.2501ZM43.9998 56.1221L45.5678 48.3781L46.0798 51.4501L40.5438 37.7221H45.6318L49.6638 47.7701H46.6238L54.7838 37.7221H59.9358L48.8958 51.4501L50.6238 48.3781L49.0558 56.1221H43.9998ZM67.2738 56.4741C65.3538 56.4741 63.7111 56.1327 62.3458 55.4501C60.9804 54.7674 59.9244 53.8181 59.1778 52.6021C58.4311 51.3861 58.0578 49.9781 58.0578 48.3781C58.0578 46.7994 58.3351 45.3381 58.8898 43.9941C59.4658 42.6501 60.2658 41.4874 61.2898 40.5061C62.3351 39.5034 63.5618 38.7354 64.9698 38.2021C66.3991 37.6474 67.9564 37.3701 69.6418 37.3701C71.5618 37.3701 73.2044 37.7114 74.5698 38.3941C75.9564 39.0767 77.0231 40.0261 77.7698 41.2421C78.5164 42.4581 78.8898 43.8661 78.8898 45.4661C78.8898 47.0447 78.6018 48.5061 78.0258 49.8501C77.4711 51.1941 76.6711 52.3674 75.6258 53.3701C74.6018 54.3514 73.3751 55.1194 71.9458 55.6741C70.5378 56.2074 68.9804 56.4741 67.2738 56.4741ZM67.7218 52.3461C68.6604 52.3461 69.5031 52.1754 70.2498 51.8341C71.0178 51.4714 71.6578 50.9914 72.1698 50.3941C72.7031 49.7754 73.0978 49.0714 73.3538 48.2821C73.6311 47.4714 73.7698 46.6287 73.7698 45.7541C73.7698 44.4741 73.3751 43.4501 72.5858 42.6821C71.8178 41.8927 70.6978 41.4981 69.2258 41.4981C68.2871 41.4981 67.4338 41.6794 66.6658 42.0421C65.9191 42.3834 65.2898 42.8634 64.7778 43.4821C64.2658 44.1007 63.8604 44.8047 63.5618 45.5941C63.2844 46.3834 63.1458 47.2261 63.1458 48.1221C63.1458 49.3807 63.5404 50.4047 64.3298 51.1941C65.1191 51.9621 66.2498 52.3461 67.7218 52.3461ZM89.572 56.4741C87.6947 56.4741 86.1267 56.1221 84.868 55.4181C83.6307 54.7141 82.756 53.7221 82.244 52.4421C81.7533 51.1621 81.6787 49.6581 82.02 47.9301L84.068 37.7221H89.124L87.108 47.8661C86.8093 49.3594 86.9267 50.4794 87.46 51.2261C88.0147 51.9514 88.9213 52.3141 90.18 52.3141C91.332 52.3141 92.2493 51.9727 92.932 51.2901C93.6147 50.5861 94.1053 49.4447 94.404 47.8661L96.452 37.7221H101.412L99.332 48.1861C98.7987 50.9167 97.7213 52.9861 96.1 54.3941C94.4787 55.7807 92.3027 56.4741 89.572 56.4741ZM102.486 56.1221L106.166 37.7221H114.07C116.438 37.7221 118.272 38.2341 119.574 39.2581C120.875 40.2821 121.526 41.7221 121.526 43.5781C121.526 45.1141 121.142 46.4581 120.374 47.6101C119.627 48.7407 118.56 49.6261 117.174 50.2661C115.808 50.8847 114.176 51.1941 112.278 51.1941H106.262L108.95 49.0501L107.542 56.1221H102.486ZM114.294 56.1221L110.422 49.4341H115.67L119.574 56.1221H114.294ZM108.822 49.6261L107.062 47.3541H112.502C113.739 47.3541 114.699 47.0661 115.382 46.4901C116.064 45.8927 116.406 45.0821 116.406 44.0581C116.406 43.2474 116.128 42.6501 115.574 42.2661C115.019 41.8607 114.251 41.6581 113.27 41.6581H108.246L110.87 39.3861L108.822 49.6261Z" fill="#3C3C3D"/>
<path d="M132.142 56.1221L135.822 37.7221H145.166C147.256 37.7221 148.846 38.1061 149.934 38.8741C151.022 39.6207 151.566 40.6981 151.566 42.1061C151.566 43.2154 151.267 44.1647 150.67 44.9541C150.072 45.7221 149.251 46.3087 148.206 46.7141C147.182 47.1194 146.008 47.3221 144.686 47.3221L145.358 46.1061C147.022 46.1061 148.344 46.4687 149.326 47.1941C150.307 47.8981 150.798 48.9221 150.798 50.2661C150.798 51.6101 150.424 52.7194 149.678 53.5941C148.931 54.4474 147.907 55.0874 146.606 55.5141C145.326 55.9194 143.886 56.1221 142.286 56.1221H132.142ZM137.87 52.5701H142.478C143.523 52.5701 144.334 52.3674 144.91 51.9621C145.486 51.5354 145.774 50.9487 145.774 50.2021C145.774 49.6261 145.56 49.2101 145.134 48.9541C144.707 48.6767 144.088 48.5381 143.278 48.5381H138.318L138.99 45.1461H143.278C144.216 45.1461 144.974 44.9434 145.55 44.5381C146.126 44.1327 146.414 43.5674 146.414 42.8421C146.414 42.2874 146.19 41.8927 145.742 41.6581C145.315 41.4021 144.728 41.2741 143.982 41.2741H140.142L137.87 52.5701ZM153.204 56.1221L156.884 37.7221H164.788C167.156 37.7221 168.991 38.2341 170.292 39.2581C171.594 40.2821 172.244 41.7221 172.244 43.5781C172.244 45.1141 171.86 46.4581 171.092 47.6101C170.346 48.7407 169.279 49.6261 167.892 50.2661C166.527 50.8847 164.895 51.1941 162.996 51.1941H156.98L159.668 49.0501L158.26 56.1221H153.204ZM165.012 56.1221L161.14 49.4341H166.388L170.292 56.1221H165.012ZM159.54 49.6261L157.78 47.3541H163.22C164.458 47.3541 165.418 47.0661 166.1 46.4901C166.783 45.8927 167.124 45.0821 167.124 44.0581C167.124 43.2474 166.847 42.6501 166.292 42.2661C165.738 41.8607 164.97 41.6581 163.988 41.6581H158.964L161.588 39.3861L159.54 49.6261ZM171.014 56.1221L183.046 37.7221H188.006L192.55 56.1221H187.494L186.694 52.5061L186.054 48.7941L184.198 40.1221H185.926L180.678 48.7941L178.63 52.5061L176.39 56.1221H171.014ZM176.198 52.5061L178.246 48.7941H187.494L188.07 52.5061H176.198ZM194.767 56.1221L198.447 37.7221H202.607L210.255 50.1701H208.591L211.087 37.7221H216.047L212.399 56.1221H208.207L200.527 43.6741H202.223L199.759 56.1221H194.767ZM217.266 56.1221L220.978 37.7221H229.042C230.983 37.7221 232.647 38.0421 234.034 38.6821C235.421 39.3007 236.477 40.1861 237.202 41.3381C237.949 42.4901 238.322 43.8554 238.322 45.4341C238.322 47.6101 237.821 49.4981 236.818 51.0981C235.837 52.6767 234.471 53.9141 232.722 54.8101C230.973 55.6847 228.946 56.1221 226.642 56.1221H217.266ZM223.122 52.1541H226.834C228.178 52.1541 229.33 51.8767 230.29 51.3221C231.25 50.7461 231.975 49.9781 232.466 49.0181C232.978 48.0367 233.234 46.9487 233.234 45.7541C233.234 44.4741 232.818 43.4821 231.986 42.7781C231.175 42.0527 229.991 41.6901 228.434 41.6901H225.234L223.122 52.1541ZM244.665 48.9861C244.814 48.2821 245.092 47.6954 245.497 47.2261C245.924 46.7354 246.393 46.3087 246.905 45.9461C247.438 45.5834 247.95 45.2527 248.441 44.9541C248.953 44.6341 249.369 44.3141 249.689 43.9941C250.009 43.6527 250.169 43.2794 250.169 42.8741C250.169 42.3834 249.945 42.0101 249.497 41.7541C249.049 41.4981 248.43 41.3701 247.641 41.3701C246.788 41.3701 246.009 41.5194 245.305 41.8181C244.601 42.0954 243.993 42.4901 243.481 43.0021L240.409 40.5061C241.241 39.5887 242.35 38.8527 243.737 38.2981C245.145 37.7434 246.724 37.4661 248.473 37.4661C249.838 37.4661 251.054 37.6367 252.121 37.9781C253.209 38.3194 254.052 38.8207 254.649 39.4821C255.246 40.1434 255.545 40.9327 255.545 41.8501C255.545 42.6821 255.353 43.3861 254.969 43.9621C254.585 44.5381 254.094 45.0287 253.497 45.4341C252.9 45.8394 252.302 46.2127 251.705 46.5541C251.108 46.8954 250.585 47.2581 250.137 47.6421C249.689 48.0047 249.412 48.4527 249.305 48.9861H244.665ZM246.009 56.3781C245.092 56.3781 244.366 56.1221 243.833 55.6101C243.321 55.0981 243.065 54.5221 243.065 53.8821C243.065 53.1141 243.364 52.4527 243.961 51.8981C244.558 51.3221 245.337 51.0341 246.297 51.0341C247.236 51.0341 247.961 51.2794 248.473 51.7701C248.985 52.2607 249.241 52.8367 249.241 53.4981C249.241 53.9887 249.102 54.4581 248.825 54.9061C248.569 55.3327 248.196 55.6847 247.705 55.9621C247.236 56.2394 246.67 56.3781 246.009 56.3781Z" fill="black"/>
<defs>
<linearGradient id="paint0_linear_475_45" x1="-24.6724" y1="26.1221" x2="319.328" y2="26.1221" gradientUnits="userSpaceOnUse">
<stop stop-color="#F59D0F"/>
<stop offset="1" stop-color="#F1860B"/>
</linearGradient>
</defs>
</svg>
